SplineFontDB: 3.2
FontName: ZhoGlyph
FullName: ZhoGlyph Regular
FamilyName: ZhoGlyph
Weight: Book
Copyright: Copyright berka_1337 2021
Version: 1.0
ItalicAngle: 0
UnderlinePosition: 153
UnderlineWidth: 102
Ascent: 2048
Descent: 0
InvalidEm: 0
sfntRevision: 0x00010000
LayerCount: 2
Layer: 0 1 "Back" 1
Layer: 1 1 "Fore" 0
XUID: [1021 55 1565586817 30694]
StyleMap: 0x0040
FSType: 4
OS2Version: 2
OS2_WeightWidthSlopeOnly: 0
OS2_UseTypoMetrics: 0
CreationTime: 1649950519
ModificationTime: 1673833144
PfmFamily: 81
TTFWeight: 400
TTFWidth: 5
LineGap: 0
VLineGap: 0
Panose: 0 0 4 0 0 0 0 0 0 0
OS2TypoAscent: 2048
OS2TypoAOffset: 0
OS2TypoDescent: 0
OS2TypoDOffset: 0
OS2TypoLinegap: 0
OS2WinAscent: 2048
OS2WinAOffset: 0
OS2WinDescent: 0
OS2WinDOffset: 0
HheadAscent: 2048
HheadAOffset: 0
HheadDescent: 0
HheadDOffset: 0
OS2SubXSize: 1024
OS2SubYSize: 1024
OS2SubXOff: 0
OS2SubYOff: 0
OS2SupXSize: 1024
OS2SupYSize: 1024
OS2SupXOff: 0
OS2SupYOff: 1024
OS2StrikeYSize: 102
OS2StrikeYPos: 409
OS2Vendor: 'FSTR'
OS2CodePages: 00000001.00000000
OS2UnicodeRanges: 00000001.00000000.00000000.00000000
DEI: 91125
ShortTable: maxp 16
  1
  0
  60
  85
  5
  0
  0
  2
  0
  0
  0
  0
  0
  0
  0
  0
EndShort
LangName: 1033 "" "" "Regular" "ZhoGlyph" "" "1.0" "" "FontStruct is a trademark of FontStruct.com" "https://fontstruct.com" "berka_1337" "+IBwA-ZhoGlyph+IB0A was built with FontStruct+AAoA" "https://fontstruct.com/fontstructions/show/1984638/zhoglyph" "https://fontstruct.com/fontstructors/show/1694544/berka-1337" "All Rights Reserved" "" "" "" "" "" "Five big quacking zephyrs jolt my wax bed"
Encoding: UnicodeBmp
UnicodeInterp: none
NameList: AGL For New Fonts
DisplaySize: -48
AntiAlias: 1
FitToEm: 0
WinInfo: 0 38 12
BeginChars: 65537 121

StartChar: .notdef
Encoding: 65536 -1 0
Width: 1831
GlyphClass: 1
Flags: W
LayerCount: 2
Fore
SplineSet
1506 50 m 1,0,-1
 787 1004 l 1,1,-1
 69 50 l 1,2,-1
 1506 50 l 1,0,-1
50 69 m 1,3,-1
 768 1024 l 1,4,-1
 50 1978 l 1,5,-1
 50 69 l 1,6,-1
 50 69 l 1,3,-1
1525 69 m 1,7,-1
 1525 1978 l 1,8,-1
 806 1024 l 1,9,-1
 1525 69 l 1,10,-1
 1525 69 l 1,7,-1
787 1043 m 1,11,-1
 1506 1998 l 1,12,-1
 69 1998 l 1,13,-1
 787 1043 l 1,14,-1
 787 1043 l 1,11,-1
0 0 m 1,15,-1
 0 2048 l 1,16,-1
 1575 2048 l 1,17,-1
 1575 0 l 1,18,-1
 0 0 l 1,15,-1
EndSplineSet
EndChar

StartChar: quotesingle
Encoding: 39 39 2
Width: 2560
GlyphClass: 1
Flags: W
LayerCount: 2
Fore
SplineSet
2133 616 m 1,0,-1
 2055 494 l 1,1,-1
 1659 620 l 5,2,-1
 2055 750 l 1,3,-1
 2133 616 l 1,4,-1
 2133 616 l 1,0,-1
2052 152.5 m 1,5,6
 2052 152.5 2052 152.5 1969 237 c 1,7,-1
 1969 963 l 1,8,-1
 2047 1051.5 l 17,9,10
 2047 1051.5 2047 1051.5 2133 963 c 1,11,-1
 2133 237 l 1,12,-1
 2052 152.5 l 1,5,6
1152 6 m 1,13,-1
 1024 262 l 1,14,-1
 709 612 l 1,15,-1
 1536 1136 l 1,16,-1
 1536 1292 l 1,17,-1
 1024 1292 l 1,18,-1
 768 1036 l 1,19,-1
 512 1036 l 1,20,-1
 256 1164 l 1,21,-1
 512 1292 l 1,22,-1
 768 1292 l 1,23,-1
 1024 1548 l 1,24,-1
 2048 1548 l 1,25,-1
 2304 1420 l 1,26,-1
 2048 1292 l 1,27,-1
 1792 1292 l 1,28,-1
 1792 1036 l 1,29,-1
 1024 518 l 1,30,-1
 1280 262 l 1,31,-1
 1152 6 l 1,32,-1
 1152 6 l 1,13,-1
EndSplineSet
EndChar

StartChar: zero
Encoding: 48 48 3
Width: 2560
GlyphClass: 1
Flags: W
LayerCount: 2
Fore
SplineSet
1792 512 m 2,0,1
 1897 512 1897 512 1972 587 c 0,2,3
 2048 662 2048 662 2048 768 c 2,4,-1
 2048 1536 l 2,5,6
 2048 1641 2048 1641 1972 1716 c 0,7,8
 1897 1792 1897 1792 1792 1792 c 2,9,-1
 768 1792 l 2,10,11
 662 1792 662 1792 587 1716 c 0,12,13
 512 1641 512 1641 512 1536 c 2,14,-1
 512 768 l 2,15,16
 512 662 512 662 587 587 c 256,17,18
 662 512 662 512 768 512 c 2,19,-1
 1792 512 l 2,0,1
512 256 m 2,20,21
 405 256 405 256 331 331 c 0,22,23
 256 406 256 406 256 512 c 2,24,-1
 256 1792 l 2,25,26
 256 1898 256 1898 331 1972 c 0,27,28
 406 2048 406 2048 512 2048 c 2,29,-1
 2048 2048 l 2,30,31
 2154 2048 2154 2048 2228 1972 c 0,32,33
 2304 1897 2304 1897 2304 1792 c 2,34,-1
 2304 512 l 2,35,36
 2304 405 2304 405 2228 331 c 0,37,38
 2153 256 2153 256 2048 256 c 2,39,-1
 512 256 l 2,20,21
EndSplineSet
EndChar

StartChar: one
Encoding: 49 49 4
Width: 2560
GlyphClass: 1
Flags: W
LayerCount: 2
Fore
SplineSet
384 256 m 2,0,1
 331 256 331 256 293 293 c 0,2,3
 256 331 256 331 256 384 c 0,4,5
 256 436 256 436 293 474 c 0,6,7
 331 512 331 512 384 512 c 2,8,-1
 640 512 l 1,9,-1
 640 1920 l 2,10,11
 640 1972 640 1972 677 2010 c 0,12,13
 715 2048 715 2048 768 2048 c 0,14,15
 820 2048 820 2048 858 2010 c 256,16,17
 896 1972 896 1972 896 1920 c 2,18,-1
 896 512 l 1,19,-1
 2176 512 l 2,20,21
 2228 512 2228 512 2266 474 c 256,22,23
 2304 436 2304 436 2304 384 c 0,24,25
 2304 331 2304 331 2266 293 c 0,26,27
 2228 256 2228 256 2176 256 c 2,28,-1
 384 256 l 2,0,1
EndSplineSet
EndChar

StartChar: two
Encoding: 50 50 5
Width: 2560
GlyphClass: 1
Flags: W
LayerCount: 2
Fore
SplineSet
384 256 m 2,0,1
 331 256 331 256 293 293 c 0,2,3
 256 331 256 331 256 384 c 0,4,5
 256 436 256 436 293 474 c 0,6,7
 331 512 331 512 384 512 c 2,8,-1
 640 512 l 1,9,-1
 640 1920 l 2,10,11
 640 1972 640 1972 677 2010 c 0,12,13
 715 2048 715 2048 768 2048 c 0,14,15
 820 2048 820 2048 858 2010 c 256,16,17
 896 1972 896 1972 896 1920 c 2,18,-1
 896 512 l 1,19,-1
 1664 512 l 1,20,-1
 1664 1920 l 2,21,22
 1664 1972 1664 1972 1701 2010 c 0,23,24
 1739 2048 1739 2048 1792 2048 c 0,25,26
 1844 2048 1844 2048 1882 2010 c 256,27,28
 1920 1972 1920 1972 1920 1920 c 2,29,-1
 1920 512 l 1,30,-1
 2176 512 l 2,31,32
 2228 512 2228 512 2266 474 c 256,33,34
 2304 436 2304 436 2304 384 c 0,35,36
 2304 331 2304 331 2266 293 c 0,37,38
 2228 256 2228 256 2176 256 c 2,39,-1
 384 256 l 2,0,1
EndSplineSet
EndChar

StartChar: three
Encoding: 51 51 6
Width: 2560
GlyphClass: 1
Flags: W
LayerCount: 2
Fore
SplineSet
384 256 m 2,0,1
 331 256 331 256 293 293 c 0,2,3
 256 331 256 331 256 384 c 0,4,5
 256 436 256 436 293 474 c 0,6,7
 331 512 331 512 384 512 c 2,8,-1
 640 512 l 1,9,-1
 640 1920 l 2,10,11
 640 1972 640 1972 677 2010 c 0,12,13
 715 2048 715 2048 768 2048 c 0,14,15
 820 2048 820 2048 858 2010 c 256,16,17
 896 1972 896 1972 896 1920 c 2,18,-1
 896 512 l 1,19,-1
 1152 512 l 1,20,-1
 1152 1920 l 2,21,22
 1152 1972 1152 1972 1189 2010 c 0,23,24
 1227 2048 1227 2048 1280 2048 c 0,25,26
 1332 2048 1332 2048 1370 2010 c 256,27,28
 1408 1972 1408 1972 1408 1920 c 2,29,-1
 1408 512 l 1,30,-1
 1664 512 l 1,31,-1
 1664 1920 l 2,32,33
 1664 1972 1664 1972 1701 2010 c 0,34,35
 1739 2048 1739 2048 1792 2048 c 0,36,37
 1844 2048 1844 2048 1882 2010 c 256,38,39
 1920 1972 1920 1972 1920 1920 c 2,40,-1
 1920 512 l 1,41,-1
 2176 512 l 2,42,43
 2228 512 2228 512 2266 474 c 256,44,45
 2304 436 2304 436 2304 384 c 0,46,47
 2304 331 2304 331 2266 293 c 0,48,49
 2228 256 2228 256 2176 256 c 2,50,-1
 384 256 l 2,0,1
EndSplineSet
EndChar

StartChar: four
Encoding: 52 52 7
Width: 2560
GlyphClass: 1
Flags: W
LayerCount: 2
Fore
SplineSet
640 256 m 1,0,1
 587 256 587 256 549 293 c 0,2,3
 512 331 512 331 512 384 c 2,4,-1
 512 512 l 1,5,-1
 896 1280 l 1,6,-1
 384 1280 l 2,7,8
 331 1280 331 1280 293 1317 c 0,9,10
 256 1355 256 1355 256 1408 c 0,11,12
 256 1460 256 1460 293 1498 c 0,13,14
 331 1536 331 1536 384 1536 c 2,15,-1
 1024 1536 l 1,16,-1
 1152 1792 l 1,17,-1
 1152 1920 l 2,18,19
 1152 1972 1152 1972 1189 2010 c 0,20,21
 1227 2048 1227 2048 1280 2048 c 0,22,23
 1332 2048 1332 2048 1370 2010 c 256,24,25
 1408 1972 1408 1972 1408 1920 c 2,26,-1
 1408 1792 l 1,27,-1
 1536 1536 l 1,28,-1
 2176 1536 l 2,29,30
 2228 1536 2228 1536 2266 1498 c 256,31,32
 2304 1460 2304 1460 2304 1408 c 0,33,34
 2304 1355 2304 1355 2266 1317 c 0,35,36
 2228 1280 2228 1280 2176 1280 c 2,37,-1
 1664 1280 l 1,38,-1
 2048 512 l 1,39,-1
 2048 384 l 2,40,41
 2048 331 2048 331 2010 293 c 0,42,43
 1972 256 1972 256 1920 256 c 0,44,45
 1867 256 1867 256 1829 293 c 0,46,47
 1792 331 1792 331 1792 384 c 2,48,-1
 1792 512 l 1,49,-1
 1408 1280 l 1,50,-1
 1152 1280 l 1,51,-1
 768 512 l 1,52,-1
 768 384 l 2,53,54
 768 331 768 331 730 293 c 0,55,56
 692 256 692 256 640 256 c 1,57,-1
 640 256 l 1,0,1
EndSplineSet
EndChar

StartChar: five
Encoding: 53 53 8
Width: 2560
GlyphClass: 1
Flags: W
LayerCount: 2
Fore
SplineSet
896 0 m 1,0,1
 843 0 843 0 805 37 c 0,2,3
 768 75 768 75 768 128 c 2,4,-1
 768 256 l 1,5,-1
 1280 1280 l 1,6,-1
 384 1280 l 2,7,8
 331 1280 331 1280 293 1317 c 0,9,10
 256 1355 256 1355 256 1408 c 0,11,12
 256 1460 256 1460 293 1498 c 0,13,14
 331 1536 331 1536 384 1536 c 2,15,-1
 1408 1536 l 1,16,-1
 1536 1792 l 1,17,-1
 1536 1920 l 2,18,19
 1536 1972 1536 1972 1573 2010 c 0,20,21
 1611 2048 1611 2048 1664 2048 c 0,22,23
 1716 2048 1716 2048 1754 2010 c 256,24,25
 1792 1972 1792 1972 1792 1920 c 2,26,-1
 1792 1792 l 1,27,-1
 1664 1536 l 1,28,-1
 2176 1536 l 2,29,30
 2228 1536 2228 1536 2266 1498 c 256,31,32
 2304 1460 2304 1460 2304 1408 c 0,33,34
 2304 1355 2304 1355 2266 1317 c 0,35,36
 2228 1280 2228 1280 2176 1280 c 2,37,-1
 1536 1280 l 1,38,-1
 1024 256 l 1,39,-1
 1024 128 l 2,40,41
 1024 75 1024 75 986 37 c 0,42,43
 948 0 948 0 896 0 c 1,44,-1
 896 0 l 1,0,1
EndSplineSet
EndChar

StartChar: six
Encoding: 54 54 9
Width: 2560
GlyphClass: 1
Flags: W
LayerCount: 2
Fore
SplineSet
768 256 m 1,0,1
 715 256 715 256 677 293 c 0,2,3
 640 331 640 331 640 384 c 2,4,-1
 640 1280 l 1,5,-1
 384 1280 l 2,6,7
 331 1280 331 1280 293 1317 c 0,8,9
 256 1355 256 1355 256 1408 c 0,10,11
 256 1460 256 1460 293 1498 c 0,12,13
 331 1536 331 1536 384 1536 c 2,14,-1
 640 1536 l 1,15,-1
 640 1920 l 2,16,17
 640 1972 640 1972 677 2010 c 0,18,19
 715 2048 715 2048 768 2048 c 0,20,21
 820 2048 820 2048 858 2010 c 256,22,23
 896 1972 896 1972 896 1920 c 2,24,-1
 896 1536 l 1,25,-1
 1152 1536 l 1,26,-1
 1152 1920 l 2,27,28
 1152 1972 1152 1972 1189 2010 c 0,29,30
 1227 2048 1227 2048 1280 2048 c 0,31,32
 1332 2048 1332 2048 1370 2010 c 256,33,34
 1408 1972 1408 1972 1408 1920 c 2,35,-1
 1408 1536 l 1,36,-1
 1664 1536 l 1,37,-1
 1664 1920 l 2,38,39
 1664 1972 1664 1972 1701 2010 c 0,40,41
 1739 2048 1739 2048 1792 2048 c 0,42,43
 1844 2048 1844 2048 1882 2010 c 256,44,45
 1920 1972 1920 1972 1920 1920 c 2,46,-1
 1920 1536 l 1,47,-1
 2176 1536 l 2,48,49
 2228 1536 2228 1536 2266 1498 c 256,50,51
 2304 1460 2304 1460 2304 1408 c 0,52,53
 2304 1355 2304 1355 2266 1317 c 0,54,55
 2228 1280 2228 1280 2176 1280 c 2,56,-1
 1920 1280 l 1,57,-1
 1920 384 l 2,58,59
 1920 331 1920 331 1882 293 c 0,60,61
 1844 256 1844 256 1792 256 c 0,62,63
 1739 256 1739 256 1701 293 c 0,64,65
 1664 331 1664 331 1664 384 c 2,66,-1
 1664 1280 l 1,67,-1
 1408 1280 l 1,68,-1
 1408 384 l 2,69,70
 1408 331 1408 331 1370 293 c 0,71,72
 1332 256 1332 256 1280 256 c 0,73,74
 1227 256 1227 256 1189 293 c 0,75,76
 1152 331 1152 331 1152 384 c 2,77,-1
 1152 1280 l 1,78,-1
 896 1280 l 1,79,-1
 896 384 l 2,80,81
 896 331 896 331 858 293 c 0,82,83
 820 256 820 256 768 256 c 1,84,-1
 768 256 l 1,0,1
EndSplineSet
EndChar

StartChar: seven
Encoding: 55 55 10
Width: 2560
GlyphClass: 1
Flags: W
LayerCount: 2
Fore
SplineSet
1920 256 m 1,0,1
 1867 256 1867 256 1829 293 c 0,2,3
 1792 331 1792 331 1792 384 c 2,4,-1
 1792 1024 l 1,5,-1
 768 1024 l 2,6,7
 661 1024 661 1024 587 1099 c 0,8,9
 512 1174 512 1174 512 1280 c 2,10,-1
 512 1792 l 1,11,-1
 384 1792 l 2,12,13
 331 1792 331 1792 293 1829 c 0,14,15
 256 1867 256 1867 256 1920 c 0,16,17
 256 1972 256 1972 293 2010 c 0,18,19
 331 2048 331 2048 384 2048 c 2,20,-1
 2176 2048 l 2,21,22
 2228 2048 2228 2048 2266 2010 c 256,23,24
 2304 1972 2304 1972 2304 1920 c 0,25,26
 2304 1867 2304 1867 2266 1829 c 0,27,28
 2228 1792 2228 1792 2176 1792 c 2,29,-1
 768 1792 l 1,30,-1
 768 1280 l 1,31,-1
 1792 1280 l 2,32,33
 1898 1280 1898 1280 1972 1204 c 0,34,35
 2048 1129 2048 1129 2048 1024 c 2,36,-1
 2048 384 l 2,37,38
 2048 331 2048 331 2010 293 c 0,39,40
 1972 256 1972 256 1920 256 c 1,41,-1
 1920 256 l 1,0,1
EndSplineSet
EndChar

StartChar: eight
Encoding: 56 56 11
Width: 2560
GlyphClass: 1
Flags: W
LayerCount: 2
Fore
SplineSet
1280 768 m 1,0,-1
 1792 1792 l 1,1,-1
 768 1792 l 1,2,-1
 1280 768 l 1,3,-1
 1280 768 l 1,0,-1
1280 256 m 1,4,5
 1227 256 1227 256 1189 293 c 0,6,7
 1152 331 1152 331 1152 384 c 2,8,-1
 1152 512 l 1,9,-1
 512 1792 l 1,10,-1
 384 1792 l 2,11,12
 331 1792 331 1792 293 1829 c 0,13,14
 256 1867 256 1867 256 1920 c 0,15,16
 256 1972 256 1972 293 2010 c 0,17,18
 331 2048 331 2048 384 2048 c 2,19,-1
 2176 2048 l 2,20,21
 2228 2048 2228 2048 2266 2010 c 256,22,23
 2304 1972 2304 1972 2304 1920 c 0,24,25
 2304 1867 2304 1867 2266 1829 c 0,26,27
 2228 1792 2228 1792 2176 1792 c 2,28,-1
 2048 1792 l 1,29,-1
 1408 512 l 1,30,-1
 1408 384 l 2,31,32
 1408 331 1408 331 1370 293 c 0,33,34
 1332 256 1332 256 1280 256 c 1,35,-1
 1280 256 l 1,4,5
EndSplineSet
EndChar

StartChar: nine
Encoding: 57 57 12
Width: 2560
GlyphClass: 1
Flags: W
LayerCount: 2
Fore
SplineSet
1152 512 m 1,0,-1
 1152 1024 l 1,1,-1
 896 1024 l 1,2,-1
 896 512 l 1,3,-1
 1152 512 l 1,0,-1
1664 512 m 1,4,-1
 1664 1024 l 1,5,-1
 1408 1024 l 1,6,-1
 1408 512 l 1,7,-1
 1664 512 l 1,4,-1
1152 1280 m 1,8,-1
 1152 1792 l 1,9,-1
 896 1792 l 1,10,-1
 896 1280 l 1,11,-1
 1152 1280 l 1,8,-1
1664 1280 m 1,12,-1
 1664 1792 l 1,13,-1
 1408 1792 l 1,14,-1
 1408 1280 l 1,15,-1
 1664 1280 l 1,12,-1
384 256 m 2,16,17
 331 256 331 256 293 293 c 0,18,19
 256 331 256 331 256 384 c 0,20,21
 256 436 256 436 293 474 c 0,22,23
 331 512 331 512 384 512 c 2,24,-1
 640 512 l 1,25,-1
 640 1024 l 1,26,-1
 384 1024 l 2,27,28
 331 1024 331 1024 293 1061 c 0,29,30
 256 1099 256 1099 256 1152 c 0,31,32
 256 1204 256 1204 293 1242 c 0,33,34
 331 1280 331 1280 384 1280 c 2,35,-1
 640 1280 l 1,36,-1
 640 1792 l 1,37,-1
 384 1792 l 2,38,39
 331 1792 331 1792 293 1829 c 0,40,41
 256 1867 256 1867 256 1920 c 0,42,43
 256 1972 256 1972 293 2010 c 0,44,45
 331 2048 331 2048 384 2048 c 2,46,-1
 2176 2048 l 2,47,48
 2228 2048 2228 2048 2266 2010 c 256,49,50
 2304 1972 2304 1972 2304 1920 c 0,51,52
 2304 1867 2304 1867 2266 1829 c 0,53,54
 2228 1792 2228 1792 2176 1792 c 2,55,-1
 1920 1792 l 1,56,-1
 1920 1280 l 1,57,-1
 2176 1280 l 2,58,59
 2228 1280 2228 1280 2266 1242 c 256,60,61
 2304 1204 2304 1204 2304 1152 c 0,62,63
 2304 1099 2304 1099 2266 1061 c 0,64,65
 2228 1024 2228 1024 2176 1024 c 2,66,-1
 1920 1024 l 1,67,-1
 1920 512 l 1,68,-1
 2176 512 l 2,69,70
 2228 512 2228 512 2266 474 c 256,71,72
 2304 436 2304 436 2304 384 c 0,73,74
 2304 331 2304 331 2266 293 c 0,75,76
 2228 256 2228 256 2176 256 c 2,77,-1
 384 256 l 2,16,17
EndSplineSet
EndChar

StartChar: A
Encoding: 65 65 13
Width: 2560
GlyphClass: 1
Flags: W
LayerCount: 2
Fore
SplineSet
2048 384 m 1,0,-1
 1536 640 l 1,1,-1
 1152 1024 l 1,2,-1
 1536 1792 l 1,3,-1
 1024 1792 l 1,4,-1
 768 1280 l 1,5,-1
 768 768 l 1,6,-1
 640 512 l 1,7,-1
 512 768 l 1,8,-1
 512 1280 l 1,9,-1
 768 1792 l 1,10,-1
 512 1792 l 1,11,-1
 256 1920 l 1,12,-1
 512 2048 l 1,13,-1
 1792 2048 l 1,14,-1
 2048 1920 l 1,15,-1
 1792 1792 l 1,16,-1
 1536 1280 l 1,17,-1
 1534 1280 l 1,18,-1
 1408 1152 l 1,19,-1
 1792 768 l 1,20,-1
 2304 512 l 1,21,-1
 2048 384 l 1,22,-1
 2048 384 l 1,0,-1
EndSplineSet
EndChar

StartChar: B
Encoding: 66 66 14
Width: 2560
GlyphClass: 1
Flags: W
LayerCount: 2
Fore
SplineSet
384 256 m 1,0,-1
 256 512 l 1,1,-1
 256 1792 l 1,2,-1
 512 2048 l 1,3,-1
 768 1920 l 1,4,-1
 512 1792 l 1,5,-1
 512 1280 l 1,6,-1
 1792 640 l 1,7,-1
 1920 512 l 1,8,-1
 2048 256 l 1,9,-1
 512 1024 l 1,10,-1
 512 512 l 1,11,-1
 384 256 l 1,12,-1
 384 256 l 1,0,-1
EndSplineSet
EndChar

StartChar: C
Encoding: 67 67 15
Width: 2560
GlyphClass: 1
Flags: W
LayerCount: 2
Fore
SplineSet
512 256 m 1,0,-1
 256 384 l 1,1,-1
 512 512 l 1,2,-1
 1152 512 l 1,3,-1
 1152 1792 l 1,4,-1
 512 1792 l 1,5,-1
 256 1920 l 1,6,-1
 512 2048 l 1,7,-1
 2048 2048 l 1,8,-1
 2304 1920 l 1,9,-1
 2048 1792 l 1,10,-1
 1408 1792 l 1,11,-1
 1408 512 l 1,12,-1
 2048 512 l 1,13,-1
 2304 384 l 1,14,-1
 2048 256 l 1,15,-1
 512 256 l 1,0,-1
EndSplineSet
EndChar

StartChar: D
Encoding: 68 68 16
Width: 2560
GlyphClass: 1
Flags: W
LayerCount: 2
Fore
SplineSet
768 256 m 1,0,-1
 512 512 l 1,1,-1
 384 768 l 1,2,-1
 512 1024 l 1,3,-1
 768 1280 l 1,4,-1
 1792 1792 l 1,5,-1
 1664 1536 l 1,6,-1
 1536 1408 l 1,7,-1
 768 1024 l 1,8,-1
 640 768 l 1,9,-1
 768 512 l 1,10,-1
 2048 512 l 1,11,-1
 2048 1792 l 1,12,-1
 2176 2048 l 1,13,-1
 2304 1792 l 1,14,-1
 2304 512 l 1,15,-1
 2048 256 l 1,16,-1
 768 256 l 1,0,-1
EndSplineSet
EndChar

StartChar: E
Encoding: 69 69 17
Width: 2560
GlyphClass: 1
Flags: W
LayerCount: 2
Fore
SplineSet
2048 384 m 1,0,-1
 1280 768 l 1,1,-1
 1024 1024 l 1,2,-1
 1024 1152 l 1,3,-1
 512 896 l 1,4,-1
 256 1024 l 1,5,-1
 1024 1408 l 1,6,-1
 1024 1792 l 1,7,-1
 1152 2048 l 1,8,-1
 1280 1792 l 1,9,-1
 1280 1536 l 1,10,-1
 2048 1920 l 1,11,-1
 2304 1792 l 1,12,-1
 1280 1280 l 1,13,-1
 1280 1024 l 1,14,-1
 2304 512 l 1,15,-1
 2048 384 l 1,16,-1
 2048 384 l 1,0,-1
EndSplineSet
EndChar

StartChar: F
Encoding: 70 70 18
Width: 2560
GlyphClass: 1
Flags: W
LayerCount: 2
Fore
SplineSet
2304 256 m 1,0,-1
 768 1024 l 1,1,-1
 512 1280 l 1,2,-1
 384 1536 l 1,3,-1
 512 1792 l 1,4,-1
 768 2048 l 1,5,-1
 1024 2048 l 1,6,-1
 1536 1792 l 1,7,-1
 768 1792 l 1,8,-1
 640 1536 l 1,9,-1
 768 1280 l 1,10,-1
 2048 640 l 1,11,-1
 2176 512 l 1,12,-1
 2304 256 l 1,13,-1
 2304 256 l 1,0,-1
EndSplineSet
EndChar

StartChar: G
Encoding: 71 71 19
Width: 2560
GlyphClass: 1
Flags: W
LayerCount: 2
Fore
SplineSet
2304 256 m 1,0,-1
 768 1024 l 1,1,-1
 512 1280 l 1,2,-1
 384 1536 l 1,3,-1
 512 1792 l 1,4,-1
 768 2048 l 1,5,-1
 1024 2048 l 1,6,-1
 1536 1792 l 1,7,-1
 768 1792 l 1,8,-1
 640 1536 l 1,9,-1
 768 1280 l 1,10,-1
 1024 1536 l 1,11,-1
 1024 1152 l 1,12,-1
 1280 1024 l 1,13,-1
 1536 1280 l 1,14,-1
 1536 896 l 1,15,-1
 2048 640 l 1,16,-1
 2176 512 l 1,17,-1
 2304 256 l 1,18,-1
 2304 256 l 1,0,-1
EndSplineSet
EndChar

StartChar: I
Encoding: 73 73 20
Width: 2560
GlyphClass: 1
Flags: W
LayerCount: 2
Fore
SplineSet
2048 384 m 1,0,-1
 1280 768 l 1,1,-1
 1280 769 l 1,2,-1
 1152 896 l 1,3,-1
 1024 768 l 1,4,-1
 512 512 l 1,5,-1
 256 512 l 1,6,-1
 512 768 l 1,7,-1
 1024 1024 l 1,8,-1
 1280 1280 l 1,9,-1
 1408 1536 l 1,10,-1
 1408 1792 l 1,11,-1
 1280 2048 l 1,12,-1
 1536 1920 l 1,13,-1
 1664 1792 l 1,14,-1
 1664 1536 l 1,15,-1
 1536 1280 l 1,16,-1
 1280 1024 l 1,17,-1
 2304 512 l 1,18,-1
 2048 384 l 1,19,-1
 2048 384 l 1,0,-1
EndSplineSet
EndChar

StartChar: J
Encoding: 74 74 21
Width: 2560
GlyphClass: 1
Flags: W
LayerCount: 2
Fore
SplineSet
768 256 m 1,0,-1
 512 512 l 1,1,-1
 256 1024 l 1,2,-1
 512 896 l 1,3,-1
 640 768 l 1,4,-1
 768 512 l 1,5,-1
 1536 512 l 1,6,-1
 2048 1024 l 1,7,-1
 2048 1792 l 1,8,-1
 2176 2048 l 1,9,-1
 2304 1792 l 1,10,-1
 2304 1024 l 1,11,-1
 1536 256 l 1,12,-1
 768 256 l 1,0,-1
EndSplineSet
EndChar

StartChar: K
Encoding: 75 75 22
Width: 2560
GlyphClass: 1
Flags: W
LayerCount: 2
Fore
SplineSet
512 256 m 1,0,-1
 256 512 l 1,1,-1
 512 768 l 1,2,-1
 1920 1472 l 1,3,-1
 1280 1792 l 1,4,-1
 256 1792 l 1,5,-1
 512 2048 l 1,6,-1
 1280 2048 l 1,7,-1
 2048 1664 l 1,8,-1
 2176 1536 l 1,9,-1
 2176 1408 l 1,10,-1
 2048 1280 l 1,11,-1
 512 512 l 1,12,-1
 2048 512 l 1,13,-1
 2304 384 l 1,14,-1
 2048 256 l 1,15,-1
 512 256 l 1,0,-1
EndSplineSet
EndChar

StartChar: L
Encoding: 76 76 23
Width: 2560
GlyphClass: 1
Flags: W
LayerCount: 2
Fore
SplineSet
512 256 m 1,0,-1
 256 384 l 1,1,-1
 512 512 l 1,2,-1
 512 1536 l 1,3,-1
 1024 2048 l 1,4,-1
 1024 1792 l 1,5,-1
 768 1536 l 1,6,-1
 768 512 l 1,7,-1
 1280 512 l 1,8,-1
 1280 1536 l 5,9,-1
 1792 2048 l 5,10,-1
 1792 1792 l 5,11,-1
 1536 1536 l 5,12,-1
 1536 512 l 1,13,-1
 2048 512 l 1,14,-1
 2304 384 l 1,15,-1
 2048 256 l 1,16,-1
 512 256 l 1,0,-1
EndSplineSet
EndChar

StartChar: M
Encoding: 77 77 24
Width: 2560
GlyphClass: 1
Flags: W
LayerCount: 2
Fore
SplineSet
1408 640 m 1,0,-1
 1792 1024 l 1,1,-1
 1536 1280 l 1,2,-1
 1536 1281 l 1,3,-1
 1408 1408 l 1,4,-1
 1024 1024 l 1,5,-1
 1280 768 l 1,6,-1
 1280 766 l 1,7,-1
 1408 640 l 1,8,-1
 1408 640 l 1,0,-1
1408 256 m 1,9,-1
 1280 512 l 1,10,-1
 768 1024 l 1,11,-1
 1280 1536 l 1,12,-1
 1280 1792 l 1,13,-1
 1024 1792 l 1,14,-1
 768 1536 l 1,15,-1
 512 1536 l 1,16,-1
 256 1664 l 1,17,-1
 512 1792 l 1,18,-1
 768 1792 l 1,19,-1
 1024 2048 l 1,20,-1
 2048 2048 l 1,21,-1
 2304 1920 l 1,22,-1
 2048 1792 l 1,23,-1
 1536 1792 l 1,24,-1
 1536 1536 l 1,25,-1
 2048 1024 l 1,26,-1
 1536 512 l 1,27,-1
 1408 256 l 1,28,-1
 1408 256 l 1,9,-1
EndSplineSet
EndChar

StartChar: N
Encoding: 78 78 25
Width: 2560
GlyphClass: 1
Flags: W
LayerCount: 2
Fore
SplineSet
1152 256 m 1,0,-1
 1024 512 l 1,1,-1
 768 768 l 1,2,-1
 1536 1536 l 1,3,-1
 1536 1792 l 1,4,-1
 1024 1792 l 1,5,-1
 768 1536 l 1,6,-1
 512 1536 l 1,7,-1
 256 1664 l 1,8,-1
 512 1792 l 1,9,-1
 768 1792 l 1,10,-1
 1024 2048 l 1,11,-1
 2048 2048 l 1,12,-1
 2304 1920 l 1,13,-1
 2048 1792 l 1,14,-1
 1792 1792 l 1,15,-1
 1792 1536 l 1,16,-1
 1024 768 l 1,17,-1
 1280 512 l 1,18,-1
 1152 256 l 1,19,-1
 1152 256 l 1,0,-1
EndSplineSet
EndChar

StartChar: O
Encoding: 79 79 26
Width: 2560
GlyphClass: 1
Flags: W
LayerCount: 2
Fore
SplineSet
2048 384 m 1,0,-1
 1536 640 l 1,1,-1
 1408 768 l 1,2,-1
 1280 1024 l 1,3,-1
 1280 1792 l 1,4,-1
 512 1792 l 1,5,-1
 512 768 l 1,6,-1
 1024 768 l 1,7,-1
 1280 640 l 1,8,-1
 1024 512 l 1,9,-1
 512 512 l 1,10,-1
 256 768 l 1,11,-1
 256 1792 l 1,12,-1
 512 2048 l 1,13,-1
 1280 2048 l 1,14,-1
 1536 1792 l 1,15,-1
 1536 1024 l 1,16,-1
 1792 768 l 1,17,-1
 2304 512 l 1,18,-1
 2048 384 l 1,19,-1
 2048 384 l 1,0,-1
EndSplineSet
EndChar

StartChar: P
Encoding: 80 80 27
Width: 2560
GlyphClass: 1
Flags: W
LayerCount: 2
Fore
SplineSet
384 256 m 1,0,-1
 256 512 l 1,1,-1
 256 1792 l 1,2,-1
 512 2048 l 1,3,-1
 2048 2048 l 1,4,-1
 2304 1792 l 1,5,-1
 2176 1536 l 1,6,-1
 2048 1792 l 1,7,-1
 512 1792 l 1,8,-1
 512 1280 l 1,9,-1
 1792 640 l 1,10,-1
 1920 512 l 1,11,-1
 2048 256 l 1,12,-1
 512 1024 l 1,13,-1
 512 512 l 1,14,-1
 384 256 l 1,15,-1
 384 256 l 1,0,-1
EndSplineSet
EndChar

StartChar: Q
Encoding: 81 81 28
Width: 2560
GlyphClass: 1
Flags: W
LayerCount: 2
Fore
SplineSet
512 256 m 1,0,-1
 256 384 l 1,1,-1
 512 512 l 1,2,-1
 2048 512 l 1,3,-1
 512 1280 l 1,4,-1
 384 1408 l 1,5,-1
 384 1536 l 1,6,-1
 512 1664 l 1,7,-1
 1280 2048 l 1,8,-1
 2048 2048 l 1,9,-1
 2304 1792 l 1,10,-1
 1280 1792 l 1,11,-1
 640 1472 l 1,12,-1
 2048 768 l 1,13,-1
 2304 512 l 1,14,-1
 2048 256 l 1,15,-1
 512 256 l 1,0,-1
EndSplineSet
EndChar

StartChar: R
Encoding: 82 82 29
Width: 2560
GlyphClass: 1
Flags: W
LayerCount: 2
Fore
SplineSet
1536 1280 m 1,0,-1
 1536 1792 l 1,1,-1
 1024 1792 l 1,2,-1
 1024 1280 l 1,3,-1
 1536 1280 l 1,0,-1
896 256 m 1,4,-1
 768 512 l 1,5,-1
 768 1792 l 1,6,-1
 512 1792 l 1,7,-1
 256 1920 l 1,8,-1
 512 2048 l 1,9,-1
 2048 2048 l 1,10,-1
 2304 1920 l 1,11,-1
 2048 1792 l 1,12,-1
 1792 1792 l 1,13,-1
 1792 512 l 1,14,-1
 1664 256 l 1,15,-1
 1536 512 l 1,16,-1
 1536 1024 l 1,17,-1
 1024 1024 l 1,18,-1
 1024 512 l 1,19,-1
 896 256 l 1,20,-1
 896 256 l 1,4,-1
EndSplineSet
EndChar

StartChar: S
Encoding: 83 83 30
Width: 2560
GlyphClass: 1
Flags: W
LayerCount: 2
Fore
SplineSet
512 256 m 1,0,-1
 256 384 l 1,1,-1
 512 512 l 1,2,-1
 1152 512 l 1,3,-1
 1152 1792 l 1,4,-1
 1280 2048 l 1,5,-1
 1408 1792 l 1,6,-1
 1408 512 l 1,7,-1
 2048 512 l 1,8,-1
 2304 384 l 1,9,-1
 2048 256 l 1,10,-1
 512 256 l 1,0,-1
EndSplineSet
EndChar

StartChar: T
Encoding: 84 84 31
Width: 2560
GlyphClass: 1
Flags: W
LayerCount: 2
Fore
SplineSet
768 256 m 1,0,-1
 512 512 l 1,1,-1
 384 768 l 5,2,-1
 512 1024 l 5,3,-1
 768 1280 l 5,4,-1
 1792 1792 l 5,5,-1
 1664 1536 l 5,6,-1
 1536 1408 l 5,7,-1
 768 1024 l 5,8,-1
 640 768 l 5,9,-1
 768 512 l 1,10,-1
 2048 512 l 1,11,-1
 2304 384 l 1,12,-1
 2048 256 l 1,13,-1
 768 256 l 1,0,-1
EndSplineSet
EndChar

StartChar: V
Encoding: 86 86 32
Width: 2560
GlyphClass: 1
Flags: W
LayerCount: 2
Fore
SplineSet
2176 256 m 1,0,-1
 2048 512 l 1,1,-1
 2048 1792 l 1,2,-1
 768 1792 l 1,3,-1
 640 1536 l 1,4,-1
 768 1280 l 1,5,-1
 1536 896 l 1,6,-1
 1664 768 l 1,7,-1
 1792 512 l 1,8,-1
 768 1024 l 1,9,-1
 512 1280 l 1,10,-1
 384 1536 l 1,11,-1
 512 1792 l 1,12,-1
 768 2048 l 1,13,-1
 2048 2048 l 1,14,-1
 2304 1792 l 1,15,-1
 2304 512 l 1,16,-1
 2176 256 l 1,17,-1
 2176 256 l 1,0,-1
EndSplineSet
EndChar

StartChar: Y
Encoding: 89 89 33
Width: 2560
GlyphClass: 1
Flags: W
LayerCount: 2
Fore
SplineSet
1024 256 m 1,0,-1
 256 1024 l 1,1,-1
 256 1792 l 1,2,-1
 384 2048 l 1,3,-1
 512 1792 l 1,4,-1
 512 1024 l 1,5,-1
 1024 512 l 1,6,-1
 1536 512 l 1,7,-1
 2048 1024 l 1,8,-1
 2048 1792 l 1,9,-1
 2176 2048 l 1,10,-1
 2304 1792 l 1,11,-1
 2304 1024 l 1,12,-1
 1536 256 l 1,13,-1
 1024 256 l 1,0,-1
EndSplineSet
EndChar

StartChar: Z
Encoding: 90 90 34
Width: 2560
GlyphClass: 1
Flags: W
LayerCount: 2
Fore
SplineSet
512 256 m 5,0,-1
 256 384 l 5,1,-1
 512 512 l 5,2,-1
 2048 512 l 5,3,-1
 2048 1792 l 5,4,-1
 512 1792 l 5,5,-1
 256 1920 l 5,6,-1
 512 2048 l 5,7,-1
 2048 2048 l 5,8,-1
 2304 1792 l 5,9,-1
 2304 512 l 5,10,-1
 2048 256 l 5,11,-1
 512 256 l 5,0,-1
EndSplineSet
EndChar

StartChar: Ccircumflex
Encoding: 264 264 35
Width: 2560
GlyphClass: 1
Flags: W
LayerCount: 2
Fore
SplineSet
512 256 m 1,0,-1
 256 384 l 1,1,-1
 512 512 l 1,2,-1
 1152 512 l 1,3,-1
 1152 1024 l 1,4,-1
 256 1024 l 1,5,-1
 512 1152 l 1,6,-1
 1024 1152 l 1,7,-1
 1152 1280 l 1,8,-1
 1152 1792 l 1,9,-1
 512 1792 l 1,10,-1
 256 1920 l 1,11,-1
 512 2048 l 1,12,-1
 2048 2048 l 1,13,-1
 2304 1920 l 1,14,-1
 2048 1792 l 1,15,-1
 1408 1792 l 1,16,-1
 1408 1280 l 1,17,-1
 2304 1280 l 1,18,-1
 2048 1152 l 1,19,-1
 1536 1152 l 1,20,-1
 1408 1024 l 1,21,-1
 1408 512 l 1,22,-1
 2048 512 l 1,23,-1
 2304 384 l 1,24,-1
 2048 256 l 1,25,-1
 512 256 l 1,0,-1
EndSplineSet
EndChar

StartChar: Itilde
Encoding: 296 296 36
Width: 2560
GlyphClass: 1
Flags: W
LayerCount: 2
Fore
SplineSet
2048 384 m 1,0,-1
 1280 768 l 1,1,-1
 1280 769 l 1,2,-1
 1152 896 l 1,3,-1
 1024 768 l 1,4,-1
 512 512 l 1,5,-1
 256 512 l 1,6,-1
 512 768 l 1,7,-1
 1024 1024 l 1,8,-1
 1280 1280 l 1,9,-1
 1408 1536 l 1,10,-1
 1408 1664 l 1,11,-1
 1280 1792 l 1,12,-1
 512 1792 l 1,13,-1
 256 1920 l 1,14,-1
 512 2048 l 1,15,-1
 2304 2048 l 1,16,-1
 1792 1792 l 1,17,-1
 1536 1280 l 1,18,-1
 1280 1024 l 1,19,-1
 2304 512 l 1,20,-1
 2048 384 l 1,21,-1
 2048 384 l 1,0,-1
EndSplineSet
EndChar

StartChar: Imacron
Encoding: 298 298 37
Width: 2560
GlyphClass: 1
Flags: W
LayerCount: 2
Fore
SplineSet
2048 384 m 1,0,-1
 1280 768 l 1,1,-1
 1280 769 l 1,2,-1
 1152 896 l 1,3,-1
 1024 768 l 1,4,-1
 512 512 l 1,5,-1
 256 512 l 1,6,-1
 512 768 l 1,7,-1
 1024 1024 l 1,8,-1
 1152 1280 l 1,9,-1
 512 1280 l 1,10,-1
 256 1408 l 1,11,-1
 512 1536 l 1,12,-1
 1280 1536 l 1,13,-1
 1024 2048 l 1,14,-1
 1280 1920 l 1,15,-1
 1536 1664 l 1,16,-1
 2048 1920 l 1,17,-1
 2304 1792 l 1,18,-1
 1536 1408 l 1,19,-1
 1408 1280 l 1,20,-1
 1280 1024 l 1,21,-1
 2304 512 l 1,22,-1
 2048 384 l 1,23,-1
 2048 384 l 1,0,-1
EndSplineSet
EndChar

StartChar: Rcaron
Encoding: 344 344 38
Width: 2560
GlyphClass: 1
Flags: W
LayerCount: 2
Fore
SplineSet
1280 1280 m 1,0,-1
 1408 1536 l 1,1,-1
 1536 1664 l 1,2,-1
 1536 1792 l 1,3,-1
 1024 1792 l 1,4,-1
 1024 1280 l 1,5,-1
 1280 1280 l 1,0,-1
896 256 m 1,6,-1
 768 512 l 1,7,-1
 768 1792 l 1,8,-1
 512 1792 l 1,9,-1
 256 1920 l 1,10,-1
 512 2048 l 1,11,-1
 2048 2048 l 1,12,-1
 2304 1920 l 1,13,-1
 2048 1792 l 1,14,-1
 1792 1792 l 1,15,-1
 1792 1536 l 1,16,-1
 1536 1280 l 1,17,-1
 1534 1280 l 1,18,-1
 1408 1152 l 1,19,-1
 1792 768 l 1,20,-1
 2304 512 l 1,21,-1
 2048 384 l 1,22,-1
 1536 640 l 1,23,-1
 1408 768 l 1,24,-1
 1280 1024 l 1,25,-1
 1024 1024 l 1,26,-1
 1024 512 l 1,27,-1
 896 256 l 1,28,-1
 896 256 l 1,6,-1
EndSplineSet
EndChar

StartChar: Sacute
Encoding: 346 346 39
Width: 2560
GlyphClass: 1
Flags: W
LayerCount: 2
Fore
SplineSet
512 256 m 1,0,-1
 256 384 l 1,1,-1
 512 512 l 1,2,-1
 1152 512 l 1,3,-1
 1152 1024 l 1,4,-1
 256 1024 l 1,5,-1
 512 1152 l 1,6,-1
 1024 1152 l 1,7,-1
 1152 1280 l 1,8,-1
 1152 1792 l 1,9,-1
 1280 2048 l 1,10,-1
 1408 1792 l 1,11,-1
 1408 1280 l 1,12,-1
 2304 1280 l 1,13,-1
 2048 1152 l 1,14,-1
 1536 1152 l 1,15,-1
 1408 1024 l 1,16,-1
 1408 512 l 1,17,-1
 2048 512 l 1,18,-1
 2304 384 l 1,19,-1
 2048 256 l 1,20,-1
 512 256 l 1,0,-1
EndSplineSet
EndChar

StartChar: Zacute
Encoding: 377 377 40
Width: 2560
GlyphClass: 1
Flags: W
LayerCount: 2
Fore
SplineSet
512 256 m 1,0,-1
 256 384 l 1,1,-1
 512 512 l 1,2,-1
 2048 512 l 1,3,-1
 2048 1024 l 1,4,-1
 384 1024 l 1,5,-1
 640 1152 l 1,6,-1
 1920 1152 l 1,7,-1
 2048 1280 l 1,8,-1
 2048 1792 l 1,9,-1
 512 1792 l 1,10,-1
 256 1920 l 1,11,-1
 512 2048 l 1,12,-1
 2048 2048 l 1,13,-1
 2304 1792 l 1,14,-1
 2304 512 l 1,15,-1
 2048 256 l 1,16,-1
 512 256 l 1,0,-1
EndSplineSet
EndChar

StartChar: Zdotaccent
Encoding: 379 379 41
Width: 2560
GlyphClass: 1
Flags: W
LayerCount: 2
Fore
SplineSet
768 256 m 1,0,-1
 512 512 l 1,1,-1
 384 768 l 1,2,-1
 512 1024 l 1,3,-1
 768 1280 l 1,4,-1
 1536 1664 l 1,5,-1
 1408 1408 l 1,6,-1
 1280 1280 l 1,7,-1
 768 1024 l 1,8,-1
 640 768 l 1,9,-1
 768 512 l 1,10,-1
 2048 512 l 1,11,-1
 2048 1792 l 1,12,-1
 512 1792 l 1,13,-1
 256 1920 l 1,14,-1
 512 2048 l 1,15,-1
 2048 2048 l 1,16,-1
 2304 1792 l 1,17,-1
 2304 512 l 1,18,-1
 2048 256 l 1,19,-1
 768 256 l 1,0,-1
EndSplineSet
EndChar

StartChar: Zcaron
Encoding: 381 381 42
Width: 2560
GlyphClass: 1
Flags: W
LayerCount: 2
Fore
SplineSet
2048 512 m 1,0,-1
 2048 1024 l 1,1,-1
 1024 1024 l 1,2,-1
 1024 1025 l 1,3,-1
 896 1152 l 1,4,-1
 768 1024 l 1,5,-1
 640 768 l 1,6,-1
 768 512 l 1,7,-1
 2048 512 l 1,0,-1
768 256 m 1,8,-1
 512 512 l 1,9,-1
 384 768 l 1,10,-1
 512 1024 l 1,11,-1
 896 1408 l 1,12,-1
 1152 1152 l 1,13,-1
 1920 1152 l 1,14,-1
 2048 1280 l 1,15,-1
 2048 1792 l 1,16,-1
 512 1792 l 1,17,-1
 256 1920 l 1,18,-1
 512 2048 l 1,19,-1
 2048 2048 l 1,20,-1
 2304 1792 l 1,21,-1
 2304 512 l 1,22,-1
 2048 256 l 1,23,-1
 768 256 l 1,8,-1
EndSplineSet
EndChar

StartChar: uni1E02
Encoding: 7682 7682 43
Width: 2560
GlyphClass: 1
Flags: W
LayerCount: 2
Fore
SplineSet
384 256 m 1,0,-1
 256 512 l 1,1,-1
 256 1792 l 1,2,-1
 512 2048 l 1,3,-1
 768 1920 l 1,4,-1
 512 1792 l 1,5,-1
 512 1280 l 1,6,-1
 1024 1024 l 1,7,-1
 1280 1280 l 1,8,-1
 1280 896 l 1,9,-1
 1536 768 l 1,10,-1
 1792 1024 l 1,11,-1
 1792 640 l 1,12,-1
 1920 512 l 1,13,-1
 2048 256 l 1,14,-1
 512 1024 l 1,15,-1
 512 512 l 1,16,-1
 384 256 l 1,17,-1
 384 256 l 1,0,-1
EndSplineSet
EndChar

StartChar: uni1E04
Encoding: 7684 7684 44
Width: 2560
GlyphClass: 1
Flags: W
LayerCount: 2
Fore
SplineSet
384 256 m 1,0,-1
 256 512 l 1,1,-1
 256 1792 l 1,2,-1
 512 2048 l 1,3,-1
 768 1920 l 1,4,-1
 512 1792 l 1,5,-1
 512 1280 l 1,6,-1
 1792 640 l 1,7,-1
 1920 512 l 1,8,-1
 2048 256 l 1,9,-1
 1536 512 l 1,10,-1
 1280 256 l 1,11,-1
 1280 640 l 1,12,-1
 1024 768 l 1,13,-1
 768 512 l 1,14,-1
 768 896 l 1,15,-1
 512 1024 l 1,16,-1
 512 512 l 1,17,-1
 384 256 l 1,18,-1
 384 256 l 1,0,-1
EndSplineSet
EndChar

StartChar: uni1E0A
Encoding: 7690 7690 45
Width: 2560
GlyphClass: 1
Flags: W
LayerCount: 2
Fore
SplineSet
768 256 m 1,0,-1
 512 512 l 1,1,-1
 384 768 l 1,2,-1
 512 1024 l 1,3,-1
 768 1280 l 1,4,-1
 768 1664 l 1,5,-1
 1024 1408 l 1,6,-1
 1280 1536 l 1,7,-1
 1280 1920 l 1,8,-1
 1536 1664 l 1,9,-1
 1792 1792 l 1,10,-1
 1664 1536 l 1,11,-1
 1536 1408 l 1,12,-1
 768 1024 l 1,13,-1
 640 768 l 1,14,-1
 768 512 l 1,15,-1
 2048 512 l 1,16,-1
 2048 1792 l 1,17,-1
 2176 2048 l 1,18,-1
 2304 1792 l 1,19,-1
 2304 512 l 1,20,-1
 2048 256 l 1,21,-1
 768 256 l 1,0,-1
EndSplineSet
EndChar

StartChar: uni1E0C
Encoding: 7692 7692 46
Width: 2560
GlyphClass: 1
Flags: W
LayerCount: 2
Fore
SplineSet
768 256 m 1,0,-1
 512 512 l 1,1,-1
 384 768 l 1,2,-1
 512 1024 l 1,3,-1
 768 1280 l 1,4,-1
 1792 1792 l 1,5,-1
 1664 1536 l 1,6,-1
 1536 1408 l 1,7,-1
 1536 1024 l 1,8,-1
 1280 1280 l 1,9,-1
 1024 1152 l 1,10,-1
 1024 768 l 1,11,-1
 768 1024 l 1,12,-1
 640 768 l 1,13,-1
 768 512 l 1,14,-1
 2048 512 l 1,15,-1
 2048 1792 l 1,16,-1
 2176 2048 l 1,17,-1
 2304 1792 l 1,18,-1
 2304 512 l 1,19,-1
 2048 256 l 1,20,-1
 768 256 l 1,0,-1
EndSplineSet
EndChar

StartChar: uni1E1E
Encoding: 7710 7710 47
Width: 2560
GlyphClass: 1
Flags: W
LayerCount: 2
Fore
SplineSet
2304 256 m 1,0,-1
 768 1024 l 1,1,-1
 512 1280 l 1,2,-1
 384 1536 l 1,3,-1
 512 1792 l 1,4,-1
 768 2048 l 1,5,-1
 1024 2048 l 1,6,-1
 1536 1792 l 1,7,-1
 768 1792 l 1,8,-1
 640 1536 l 1,9,-1
 768 1280 l 1,10,-1
 1024 1536 l 1,11,-1
 1024 1152 l 1,12,-1
 1280 1024 l 1,13,-1
 1536 1280 l 1,14,-1
 1536 896 l 1,15,-1
 2048 640 l 1,16,-1
 2176 512 l 1,17,-1
 2304 256 l 1,18,-1
 2304 256 l 1,0,-1
EndSplineSet
EndChar

StartChar: uni1E1F
Encoding: 7711 7711 48
Width: 2560
GlyphClass: 1
Flags: W
LayerCount: 2
Fore
SplineSet
2304 256 m 1,0,-1
 1536 640 l 1,1,-1
 1280 384 l 1,2,-1
 1280 768 l 1,3,-1
 1024 896 l 1,4,-1
 768 640 l 1,5,-1
 768 1024 l 1,6,-1
 512 1280 l 1,7,-1
 384 1536 l 1,8,-1
 512 1792 l 1,9,-1
 768 2048 l 1,10,-1
 1024 2048 l 1,11,-1
 1536 1792 l 1,12,-1
 768 1792 l 1,13,-1
 640 1536 l 1,14,-1
 768 1280 l 1,15,-1
 2048 640 l 1,16,-1
 2176 512 l 1,17,-1
 2304 256 l 1,18,-1
 2304 256 l 1,0,-1
EndSplineSet
EndChar

StartChar: uni1E30
Encoding: 7728 7728 49
Width: 2560
GlyphClass: 1
Flags: W
LayerCount: 2
Fore
SplineSet
512 256 m 1,0,-1
 256 512 l 1,1,-1
 512 768 l 1,2,-1
 768 896 l 1,3,-1
 768 1280 l 1,4,-1
 1024 1024 l 1,5,-1
 1280 1152 l 1,6,-1
 1280 1536 l 1,7,-1
 1536 1280 l 1,8,-1
 1920 1472 l 1,9,-1
 1280 1792 l 1,10,-1
 256 1792 l 1,11,-1
 512 2048 l 1,12,-1
 1280 2048 l 1,13,-1
 2048 1664 l 1,14,-1
 2176 1536 l 1,15,-1
 2176 1408 l 1,16,-1
 2048 1280 l 1,17,-1
 512 512 l 1,18,-1
 2048 512 l 1,19,-1
 2304 384 l 1,20,-1
 2048 256 l 1,21,-1
 512 256 l 1,0,-1
EndSplineSet
EndChar

StartChar: uni1E32
Encoding: 7730 7730 50
Width: 2560
GlyphClass: 1
Flags: W
LayerCount: 2
Fore
SplineSet
512 256 m 1,0,-1
 256 512 l 1,1,-1
 512 768 l 1,2,-1
 1920 1472 l 1,3,-1
 1280 1792 l 1,4,-1
 256 1792 l 1,5,-1
 512 2048 l 1,6,-1
 1280 2048 l 1,7,-1
 2048 1664 l 1,8,-1
 2176 1536 l 1,9,-1
 2176 1408 l 1,10,-1
 2048 1280 l 1,11,-1
 2048 896 l 1,12,-1
 1792 1152 l 1,13,-1
 1536 1024 l 1,14,-1
 1536 640 l 1,15,-1
 1280 896 l 1,16,-1
 512 512 l 1,17,-1
 2048 512 l 1,18,-1
 2304 384 l 1,19,-1
 2048 256 l 1,20,-1
 512 256 l 1,0,-1
EndSplineSet
EndChar

StartChar: uni1E54
Encoding: 7764 7764 51
Width: 2560
GlyphClass: 1
Flags: W
LayerCount: 2
Fore
SplineSet
384 256 m 1,0,-1
 256 512 l 1,1,-1
 256 1792 l 1,2,-1
 512 2048 l 1,3,-1
 2048 2048 l 1,4,-1
 2304 1792 l 1,5,-1
 2176 1536 l 1,6,-1
 2048 1792 l 1,7,-1
 512 1792 l 1,8,-1
 512 1280 l 1,9,-1
 1792 640 l 1,10,-1
 1920 512 l 1,11,-1
 2048 256 l 1,12,-1
 1536 512 l 1,13,-1
 1280 256 l 1,14,-1
 1280 640 l 1,15,-1
 1024 768 l 1,16,-1
 768 512 l 1,17,-1
 768 896 l 1,18,-1
 512 1024 l 1,19,-1
 512 512 l 1,20,-1
 384 256 l 1,21,-1
 384 256 l 1,0,-1
EndSplineSet
EndChar

StartChar: uni1E56
Encoding: 7766 7766 52
Width: 2560
GlyphClass: 1
Flags: W
LayerCount: 2
Fore
SplineSet
384 256 m 1,0,-1
 256 512 l 1,1,-1
 256 1792 l 1,2,-1
 512 2048 l 1,3,-1
 2048 2048 l 1,4,-1
 2304 1792 l 1,5,-1
 2176 1536 l 1,6,-1
 2048 1792 l 1,7,-1
 512 1792 l 1,8,-1
 512 1280 l 1,9,-1
 1024 1024 l 1,10,-1
 1280 1280 l 1,11,-1
 1280 896 l 1,12,-1
 1536 768 l 1,13,-1
 1792 1024 l 1,14,-1
 1792 640 l 1,15,-1
 1920 512 l 1,16,-1
 2048 256 l 1,17,-1
 512 1024 l 1,18,-1
 512 512 l 1,19,-1
 384 256 l 1,20,-1
 384 256 l 1,0,-1
EndSplineSet
EndChar

StartChar: uni1E6A
Encoding: 7786 7786 53
Width: 2560
GlyphClass: 1
Flags: W
LayerCount: 2
Fore
SplineSet
768 256 m 1,0,-1
 512 512 l 1,1,-1
 384 768 l 1,2,-1
 512 1024 l 1,3,-1
 768 1280 l 1,4,-1
 768 1664 l 1,5,-1
 1024 1408 l 1,6,-1
 1280 1536 l 1,7,-1
 1280 1920 l 1,8,-1
 1536 1664 l 1,9,-1
 1792 1792 l 1,10,-1
 1664 1536 l 1,11,-1
 1536 1408 l 1,12,-1
 768 1024 l 1,13,-1
 640 768 l 1,14,-1
 768 512 l 1,15,-1
 2048 512 l 1,16,-1
 2304 384 l 1,17,-1
 2048 256 l 1,18,-1
 768 256 l 1,0,-1
EndSplineSet
EndChar

StartChar: uni1E6C
Encoding: 7788 7788 54
Width: 2560
GlyphClass: 1
Flags: W
LayerCount: 2
Fore
SplineSet
768 256 m 1,0,-1
 512 512 l 1,1,-1
 384 768 l 1,2,-1
 512 1024 l 1,3,-1
 768 1280 l 1,4,-1
 1792 1792 l 1,5,-1
 1664 1536 l 1,6,-1
 1536 1408 l 1,7,-1
 1536 1024 l 1,8,-1
 1280 1280 l 1,9,-1
 1024 1152 l 1,10,-1
 1024 768 l 1,11,-1
 768 1024 l 1,12,-1
 640 768 l 1,13,-1
 768 512 l 1,14,-1
 2048 512 l 1,15,-1
 2304 384 l 1,16,-1
 2048 256 l 1,17,-1
 768 256 l 1,0,-1
EndSplineSet
EndChar

StartChar: uni1E6E
Encoding: 7790 7790 55
Width: 2560
GlyphClass: 1
Flags: W
LayerCount: 2
Fore
SplineSet
768 256 m 1,0,-1
 512 512 l 1,1,-1
 384 768 l 1,2,-1
 512 1024 l 1,3,-1
 768 1280 l 1,4,-1
 1024 1408 l 1,5,-1
 1024 1792 l 1,6,-1
 1152 2048 l 1,7,-1
 1280 1792 l 1,8,-1
 1280 1536 l 1,9,-1
 1792 1792 l 1,10,-1
 1664 1536 l 1,11,-1
 1536 1408 l 1,12,-1
 768 1024 l 1,13,-1
 640 768 l 1,14,-1
 768 512 l 1,15,-1
 2048 512 l 1,16,-1
 2304 384 l 1,17,-1
 2048 256 l 1,18,-1
 768 256 l 1,0,-1
EndSplineSet
EndChar

StartChar: uni1E7C
Encoding: 7804 7804 56
Width: 2560
GlyphClass: 1
Flags: W
LayerCount: 2
Fore
SplineSet
2176 256 m 1,0,-1
 2048 512 l 1,1,-1
 2048 1792 l 1,2,-1
 768 1792 l 1,3,-1
 640 1536 l 1,4,-1
 768 1280 l 1,5,-1
 1536 896 l 1,6,-1
 1664 768 l 1,7,-1
 1792 512 l 1,8,-1
 1536 640 l 1,9,-1
 1280 384 l 1,10,-1
 1280 768 l 1,11,-1
 1024 896 l 1,12,-1
 768 640 l 1,13,-1
 768 1024 l 1,14,-1
 512 1280 l 1,15,-1
 384 1536 l 1,16,-1
 512 1792 l 1,17,-1
 768 2048 l 1,18,-1
 2048 2048 l 1,19,-1
 2304 1792 l 1,20,-1
 2304 512 l 1,21,-1
 2176 256 l 1,22,-1
 2176 256 l 1,0,-1
EndSplineSet
EndChar

StartChar: uni1E7E
Encoding: 7806 7806 57
Width: 2560
GlyphClass: 1
Flags: W
LayerCount: 2
Fore
SplineSet
2176 256 m 1,0,-1
 2048 512 l 1,1,-1
 2048 1792 l 1,2,-1
 768 1792 l 1,3,-1
 640 1536 l 1,4,-1
 768 1280 l 1,5,-1
 1024 1536 l 1,6,-1
 1024 1152 l 1,7,-1
 1280 1024 l 1,8,-1
 1536 1280 l 1,9,-1
 1536 896 l 1,10,-1
 1664 768 l 1,11,-1
 1792 512 l 1,12,-1
 768 1024 l 1,13,-1
 512 1280 l 1,14,-1
 384 1536 l 1,15,-1
 512 1792 l 1,16,-1
 768 2048 l 1,17,-1
 2048 2048 l 1,18,-1
 2304 1792 l 1,19,-1
 2304 512 l 1,20,-1
 2176 256 l 1,21,-1
 2176 256 l 1,0,-1
EndSplineSet
EndChar

StartChar: uni1EDC
Encoding: 7900 7900 58
Width: 2560
GlyphClass: 1
Flags: W
LayerCount: 2
Fore
SplineSet
512 256 m 1,0,-1
 256 384 l 1,1,-1
 512 512 l 1,2,-1
 2048 512 l 1,3,-1
 512 1280 l 1,4,-1
 384 1408 l 1,5,-1
 384 1536 l 1,6,-1
 512 1664 l 1,7,-1
 1280 2048 l 1,8,-1
 2048 2048 l 1,9,-1
 2304 1792 l 1,10,-1
 1280 1792 l 1,11,-1
 640 1472 l 1,12,-1
 1024 1280 l 1,13,-1
 1280 1536 l 1,14,-1
 1280 1152 l 1,15,-1
 1536 1024 l 1,16,-1
 1792 1280 l 1,17,-1
 1792 896 l 1,18,-1
 2048 768 l 1,19,-1
 2304 512 l 1,20,-1
 2048 256 l 1,21,-1
 512 256 l 1,0,-1
EndSplineSet
EndChar

StartChar: uni1EE2
Encoding: 7906 7906 59
Width: 2560
GlyphClass: 1
Flags: W
LayerCount: 2
Fore
SplineSet
512 256 m 1,0,-1
 256 384 l 1,1,-1
 512 512 l 1,2,-1
 2048 512 l 1,3,-1
 1280 896 l 1,4,-1
 1024 640 l 1,5,-1
 1024 1024 l 1,6,-1
 768 1152 l 1,7,-1
 512 896 l 1,8,-1
 512 1280 l 1,9,-1
 384 1408 l 1,10,-1
 384 1536 l 1,11,-1
 512 1664 l 1,12,-1
 1280 2048 l 1,13,-1
 2048 2048 l 1,14,-1
 2304 1792 l 1,15,-1
 1280 1792 l 1,16,-1
 640 1472 l 1,17,-1
 2048 768 l 1,18,-1
 2304 512 l 1,19,-1
 2048 256 l 1,20,-1
 512 256 l 1,0,-1
EndSplineSet
EndChar

StartChar: exclam
Encoding: 33 33 60
Width: 1768
Flags: W
LayerCount: 2
Fore
SplineSet
1375 1280 m 17,0,-1
 863 256 l 1,1,-1
 863 128 l 2,2,3
 863 75 863 75 825 37 c 0,4,5
 787 0 787 0 735 0 c 1,6,7
 735 0 735 0 735 0 c 1,8,9
 682 0 682 0 644 37 c 0,10,11
 607 75 607 75 607 128 c 2,12,13
 607 128 607 128 607 256 c 1,14,-1
 1119 1280 l 1,15,-1
 1375 1792 l 1,16,-1
 1375 1920 l 2,17,18
 1375 1972 1375 1972 1412 2010 c 0,19,20
 1450 2048 1450 2048 1503 2048 c 0,21,22
 1555 2048 1555 2048 1593 2010 c 256,23,24
 1631 1972 1631 1972 1631 1920 c 2,25,26
 1631 1920 1631 1920 1631 1792 c 9,27,-1
 1375 1280 l 17,0,-1
875 1280 m 17,28,-1
 363 256 l 1,29,-1
 363 128 l 2,30,31
 363 75 363 75 325 37 c 0,32,33
 287 0 287 0 235 0 c 1,34,35
 235 0 235 0 235 0 c 1,36,37
 182 0 182 0 144 37 c 0,38,39
 107 75 107 75 107 128 c 2,40,41
 107 128 107 128 107 256 c 1,42,-1
 619 1280 l 1,43,-1
 875 1792 l 1,44,-1
 875 1920 l 2,45,46
 875 1972 875 1972 912 2010 c 0,47,48
 950 2048 950 2048 1003 2048 c 0,49,50
 1055 2048 1055 2048 1093 2010 c 256,51,52
 1131 1972 1131 1972 1131 1920 c 2,53,54
 1131 1920 1131 1920 1131 1792 c 9,55,-1
 875 1280 l 17,28,-1
EndSplineSet
EndChar

StartChar: quotedbl
Encoding: 34 34 61
Width: 496
Flags: W
LayerCount: 2
Fore
SplineSet
252 1052.5 m 5,0,1
 252 1052.5 252 1052.5 169 1137 c 5,2,-1
 169 1863 l 5,3,-1
 247 1951.5 l 21,4,5
 247 1951.5 247 1951.5 333 1863 c 5,6,-1
 333 1137 l 5,7,-1
 252 1052.5 l 5,0,1
EndSplineSet
EndChar

StartChar: numbersign
Encoding: 35 35 62
Width: 1067
Flags: W
LayerCount: 2
Fore
SplineSet
1016 1322 m 5,0,-1
 821 1322 l 5,1,-1
 737 843 l 5,2,-1
 944 843 l 5,3,-1
 944 728 l 5,4,-1
 717 728 l 5,5,-1
 641 300 l 5,6,-1
 514 300 l 5,7,-1
 592 728 l 5,8,-1
 350 728 l 5,9,-1
 276 300 l 5,10,-1
 150 300 l 5,11,-1
 225 728 l 5,12,-1
 51 728 l 5,13,-1
 51 843 l 5,14,-1
 246 843 l 5,15,-1
 330 1322 l 5,16,-1
 123 1322 l 5,17,-1
 123 1437 l 5,18,-1
 350 1437 l 5,19,-1
 426 1865 l 5,20,-1
 553 1865 l 5,21,-1
 475 1437 l 5,22,-1
 717 1437 l 5,23,-1
 791 1865 l 5,24,-1
 918 1865 l 5,25,-1
 842 1437 l 5,26,-1
 1016 1437 l 5,27,-1
 1016 1322 l 5,0,-1
696 1322 m 5,28,-1
 455 1322 l 5,29,-1
 371 843 l 5,30,-1
 610 843 l 5,31,-1
 696 1322 l 5,28,-1
EndSplineSet
EndChar

StartChar: dollar
Encoding: 36 36 63
Width: 2560
Flags: W
LayerCount: 2
Fore
SplineSet
395 1279 m 1,0,-1
 112 1379 l 1,1,2
 112 1379 112 1379 395 1493 c 1,3,-1
 617 1493.15020298 l 1,4,5
 617 1493.15020298 617 1493.15020298 617.000005783 1493.15020298 c 0,6,7
 843.878780629 1493.30408688 843.878780629 1493.30408688 1643 1493.84447598 c 4,8,9
 1752.61636578 1493.91860176 1752.61636578 1493.91860176 1873 1494 c 1,10,-1
 2134 1386 l 1,11,12
 2134 1386 2134 1386 1873 1280 c 1,13,-1
 395 1279 l 1,0,-1
2048 384 m 1,14,-1
 1536 640 l 1,15,-1
 1152 1024 l 1,16,-1
 1536 1792 l 1,17,-1
 1024 1792 l 1,18,-1
 768 1280 l 1,19,-1
 768 768 l 1,20,-1
 640 512 l 1,21,-1
 512 768 l 1,22,-1
 512 1280 l 1,23,-1
 768 1792 l 1,24,-1
 512 1792 l 1,25,-1
 256 1920 l 1,26,-1
 512 2048 l 1,27,-1
 1792 2048 l 1,28,-1
 2048 1920 l 1,29,-1
 1792 1792 l 1,30,-1
 1536 1280 l 1,31,-1
 1534 1280 l 1,32,-1
 1408 1152 l 1,33,-1
 1792 768 l 1,34,-1
 2304 512 l 1,35,-1
 2048 384 l 1,14,-1
EndSplineSet
EndChar

StartChar: percent
Encoding: 37 37 64
Width: 2108
Flags: W
LayerCount: 2
Fore
SplineSet
885 1280 m 17,0,-1
 373 256 l 1,1,-1
 373 128 l 2,2,3
 373 75 373 75 335 37 c 0,4,5
 297 0 297 0 245 0 c 1,6,7
 245 0 245 0 245 0 c 1,8,9
 192 0 192 0 154 37 c 0,10,11
 117 75 117 75 117 128 c 2,12,13
 117 128 117 128 117 256 c 1,14,-1
 629 1280 l 1,15,-1
 885 1792 l 1,16,-1
 885 1920 l 2,17,18
 885 1972 885 1972 922 2010 c 0,19,20
 960 2048 960 2048 1013 2048 c 0,21,22
 1065 2048 1065 2048 1103 2010 c 256,23,24
 1141 1972 1141 1972 1141 1920 c 2,25,26
 1141 1920 1141 1920 1141 1792 c 9,27,-1
 885 1280 l 17,0,-1
1082.40039062 148.799804688 m 1,28,-1
 967.200195312 206.400390625 l 1,29,-1
 1082.40039062 264 l 1,30,-1
 1370.40039062 264 l 1,31,-1
 1370.40039062 494.400390625 l 1,32,-1
 967.200195312 494.400390625 l 1,33,-1
 1082.40039062 552 l 1,34,-1
 1312.79980469 552 l 1,35,-1
 1370.40039062 609.599609375 l 1,36,-1
 1370.40039062 840 l 1,37,-1
 1082.40039062 840 l 1,38,-1
 967.200195312 897.599609375 l 1,39,-1
 1082.40039062 955.200195312 l 1,40,-1
 1773.59960938 955.200195312 l 1,41,-1
 1888.79980469 897.599609375 l 1,42,-1
 1773.59960938 840 l 1,43,-1
 1485.59960938 840 l 1,44,-1
 1485.59960938 609.599609375 l 1,45,-1
 1888.79980469 609.599609375 l 1,46,-1
 1773.59960938 552 l 1,47,-1
 1543.20019531 552 l 1,48,-1
 1485.59960938 494.400390625 l 1,49,-1
 1485.59960938 264 l 1,50,-1
 1773.59960938 264 l 1,51,-1
 1888.79980469 206.400390625 l 1,52,-1
 1773.59960938 148.799804688 l 1,53,-1
 1082.40039062 148.799804688 l 1,28,-1
EndSplineSet
EndChar

StartChar: ampersand
Encoding: 38 38 65
Width: 2560
Flags: W
LayerCount: 2
Fore
SplineSet
512 256 m 1,0,-1
 256 384 l 1,1,-1
 512 512 l 1,2,-1
 2048 512 l 1,3,-1
 2048 1097 l 1,4,-1
 2048 1127 l 1,5,-1
 815 1142 l 1,6,-1
 1076 1280 l 5,7,-1
 2048 1280 l 1,8,-1
 2048 1792 l 1,9,-1
 1664 1792 l 1,10,-1
 1536 1920 l 1,11,-1
 1280 2048 l 1,12,-1
 2048 2048 l 1,13,-1
 2304 1792 l 1,14,-1
 2304 512 l 1,15,-1
 2048 256 l 1,16,-1
 512 256 l 1,0,-1
2048 384 m 1,17,-1
 1280 768 l 1,18,-1
 1280 769 l 1,19,-1
 1152 896 l 1,20,-1
 1024 768 l 1,21,-1
 512 512 l 1,22,-1
 256 384 l 1,23,-1
 512 768 l 1,24,-1
 1024 1024 l 1,25,-1
 1280 1280 l 1,26,-1
 1408 1536 l 1,27,-1
 1408 1792 l 1,28,-1
 1280 2048 l 1,29,-1
 1536 1920 l 1,30,-1
 1664 1792 l 1,31,-1
 1664 1536 l 1,32,-1
 1536 1280 l 1,33,-1
 1280 1024 l 1,34,-1
 2304 512 l 1,35,-1
 2048 384 l 1,36,-1
 2048 384 l 1,17,-1
EndSplineSet
EndChar

StartChar: parenleft
Encoding: 40 40 66
Width: 885
Flags: W
LayerCount: 2
Fore
SplineSet
840 301 m 5,0,-1
 224 1055 l 5,1,-1
 91 1055 l 5,2,-1
 91 1047 l 5,3,-1
 707 292 l 5,4,-1
 840 292 l 5,5,-1
 840 301 l 5,0,-1
840 1806 m 1,6,-1
 224 1052 l 1,7,-1
 91 1052 l 1,8,-1
 91 1060 l 1,9,-1
 707 1815 l 1,10,-1
 840 1815 l 1,11,-1
 840 1806 l 1,6,-1
EndSplineSet
EndChar

StartChar: parenright
Encoding: 41 41 67
Width: 885
Flags: W
LayerCount: 2
Fore
SplineSet
91 301 m 5,0,-1
 707 1055 l 5,1,-1
 840 1055 l 5,2,-1
 840 1047 l 5,3,-1
 224 292 l 5,4,-1
 91 292 l 5,5,-1
 91 301 l 5,0,-1
91 1806 m 5,6,-1
 707 1052 l 5,7,-1
 840 1052 l 5,8,-1
 840 1060 l 5,9,-1
 224 1815 l 5,10,-1
 91 1815 l 5,11,-1
 91 1806 l 5,6,-1
EndSplineSet
EndChar

StartChar: asterisk
Encoding: 42 42 68
Width: 1444
Flags: W
LayerCount: 2
Fore
SplineSet
522 1492 m 1,0,-1
 1290 1108 l 1,1,-1
 522 724 l 1,2,-1
 778 980 l 1,3,-1
 779 980 l 1,4,-1
 906 1108 l 1,5,-1
 522 1492 l 1,6,-1
 522 1492 l 1,0,-1
122 1492 m 1,7,-1
 890 1108 l 1,8,-1
 122 724 l 1,9,-1
 378 980 l 1,10,-1
 379 980 l 1,11,-1
 506 1108 l 1,12,-1
 122 1492 l 1,13,-1
 122 1492 l 1,7,-1
EndSplineSet
EndChar

StartChar: plus
Encoding: 43 43 69
Width: 1000
Flags: W
LayerCount: 2
Fore
SplineSet
122 1492 m 1,0,-1
 890 1108 l 1,1,-1
 122 724 l 1,2,-1
 378 980 l 1,3,-1
 379 980 l 1,4,-1
 506 1108 l 1,5,-1
 122 1492 l 1,6,-1
 122 1492 l 1,0,-1
EndSplineSet
EndChar

StartChar: comma
Encoding: 44 44 70
Width: 457
Flags: W
LayerCount: 2
Fore
SplineSet
230 96 m 1,0,-1
 102 352 l 1,1,-1
 230 608 l 1,2,-1
 358 352 l 1,3,-1
 230 96 l 1,4,-1
 230 96 l 1,0,-1
EndSplineSet
EndChar

StartChar: hyphen
Encoding: 45 45 71
Width: 1000
Flags: W
LayerCount: 2
Fore
SplineSet
857 724 m 1,0,-1
 89 1108 l 1,1,-1
 857 1492 l 1,2,-1
 601 1236 l 1,3,-1
 600 1236 l 1,4,-1
 473 1108 l 1,5,-1
 857 724 l 1,6,-1
 857 724 l 1,0,-1
EndSplineSet
EndChar

StartChar: period
Encoding: 46 46 72
Width: 2048
Flags: W
LayerCount: 2
Fore
SplineSet
846.76171875 311.822265625 m 5,0,1
 846.76171875 311.822265625 846.76171875 311.822265625 851.495117188 382.26953125 c 5,2,-1
 1123.74511719 853.8203125 l 5,3,-1
 1182.26367188 896.677734375 l 21,4,5
 1182.26367188 896.677734375 1182.26367188 896.677734375 1177.00585938 823.0703125 c 5,6,-1
 904.755859375 351.51953125 l 5,7,-1
 846.76171875 311.822265625 l 5,0,1
846.11328125 895.740234375 m 5,8,9
 846.11328125 895.740234375 846.11328125 895.740234375 904.754882812 856.41796875 c 5,10,-1
 1177.00488281 384.8671875 l 5,11,-1
 1184.86132812 312.759765625 l 21,12,13
 1184.86132812 312.759765625 1184.86132812 312.759765625 1123.74414062 354.1171875 c 5,14,-1
 851.494140625 825.66796875 l 5,15,-1
 846.11328125 895.740234375 l 5,8,9
677.875 603.03125 m 5,16,17
 677.875 603.03125 677.875 603.03125 741.25 634.15625 c 5,18,-1
 1285.75 634.15625 l 5,19,-1
 1352.125 604.90625 l 21,20,21
 1352.125 604.90625 1352.125 604.90625 1285.75 572.65625 c 5,22,-1
 741.25 572.65625 l 5,23,-1
 677.875 603.03125 l 5,16,17
EndSplineSet
EndChar

StartChar: slash
Encoding: 47 47 73
Width: 1444
Flags: W
LayerCount: 2
Fore
SplineSet
890 1492 m 5,0,-1
 122 1108 l 5,1,-1
 890 724 l 5,2,-1
 634 980 l 5,3,-1
 633 980 l 5,4,-1
 506 1108 l 5,5,-1
 890 1492 l 5,6,-1
 890 1492 l 5,0,-1
1290 1492 m 5,7,-1
 522 1108 l 5,8,-1
 1290 724 l 5,9,-1
 1034 980 l 5,10,-1
 1033 980 l 5,11,-1
 906 1108 l 5,12,-1
 1290 1492 l 5,13,-1
 1290 1492 l 5,7,-1
EndSplineSet
EndChar

StartChar: colon
Encoding: 58 58 74
Width: 472
Flags: W
LayerCount: 2
Fore
SplineSet
241 546 m 1,0,-1
 113 802 l 1,1,-1
 241 1058 l 1,2,-1
 369 802 l 1,3,-1
 241 546 l 1,4,-1
 241 546 l 1,0,-1
241 1058 m 1,5,-1
 113 1314 l 1,6,-1
 241 1570 l 1,7,-1
 369 1314 l 1,8,-1
 241 1058 l 1,9,-1
 241 1058 l 1,5,-1
EndSplineSet
EndChar

StartChar: semicolon
Encoding: 59 59 75
Width: 472
Flags: W
LayerCount: 2
Fore
SplineSet
241 546 m 1,0,-1
 113 802 l 1,1,-1
 241 1058 l 1,2,-1
 369 802 l 1,3,-1
 241 546 l 1,4,-1
 241 546 l 1,0,-1
241 1058 m 1,5,-1
 113 1314 l 1,6,-1
 241 1570 l 1,7,-1
 369 1314 l 1,8,-1
 241 1058 l 1,9,-1
 241 1058 l 1,5,-1
EndSplineSet
EndChar

StartChar: less
Encoding: 60 60 76
Width: 704
Flags: W
LayerCount: 2
Fore
SplineSet
466 854 m 5,0,-1
 402 982 l 5,1,-1
 466 1110 l 5,2,-1
 530 982 l 5,3,-1
 466 854 l 5,4,-1
 466 854 l 5,0,-1
473 99 m 1,5,-1
 352 99 l 1,6,7
 104 502 104 502 104 982 c 256,8,9
 104 1462 104 1462 352 1865 c 1,10,-1
 473 1865 l 1,11,-1
 473 1854 l 1,12,13
 351 1633 351 1633 298 1434 c 0,14,15
 244 1230 244 1230 244 982 c 256,16,17
 244 734 244 734 298 530 c 0,18,19
 351 331 351 331 473 110 c 1,20,-1
 473 99 l 1,5,-1
EndSplineSet
EndChar

StartChar: equal
Encoding: 61 61 77
Width: 1190
Flags: W
LayerCount: 2
Fore
SplineSet
151.5 1101 m 1,0,1
 151.5 1101 151.5 1101 236 1184 c 1,2,-1
 962 1184 l 1,3,-1
 1050.5 1106 l 17,4,5
 1050.5 1106 1050.5 1106 962 1020 c 1,6,-1
 236 1020 l 1,7,-1
 151.5 1101 l 1,0,1
EndSplineSet
EndChar

StartChar: greater
Encoding: 62 62 78
Width: 704
Flags: W
LayerCount: 2
Fore
SplineSet
168 854 m 5,0,-1
 232 982 l 5,1,-1
 168 1110 l 5,2,-1
 104 982 l 5,3,-1
 168 854 l 5,4,-1
 168 854 l 5,0,-1
161 99 m 1,5,-1
 282 99 l 1,6,7
 530 502 530 502 530 982 c 256,8,9
 530 1462 530 1462 282 1865 c 1,10,-1
 161 1865 l 1,11,-1
 161 1854 l 1,12,13
 283 1633 283 1633 336 1434 c 0,14,15
 390 1230 390 1230 390 982 c 256,16,17
 390 734 390 734 336 530 c 0,18,19
 283 331 283 331 161 110 c 1,20,-1
 161 99 l 1,5,-1
EndSplineSet
EndChar

StartChar: question
Encoding: 63 63 79
Width: 1186
Flags: W
LayerCount: 2
Fore
SplineSet
837 1280 m 17,0,-1
 325 256 l 1,1,-1
 325 128 l 2,2,3
 325 75 325 75 287 37 c 0,4,5
 249 0 249 0 197 0 c 1,6,7
 197 0 197 0 197 0 c 1,8,9
 144 0 144 0 106 37 c 0,10,11
 69 75 69 75 69 128 c 2,12,13
 69 128 69 128 69 256 c 1,14,-1
 581 1280 l 1,15,-1
 837 1792 l 1,16,-1
 837 1920 l 2,17,18
 837 1972 837 1972 874 2010 c 0,19,20
 912 2048 912 2048 965 2048 c 0,21,22
 1017 2048 1017 2048 1055 2010 c 256,23,24
 1093 1972 1093 1972 1093 1920 c 2,25,26
 1093 1920 1093 1920 1093 1792 c 9,27,-1
 837 1280 l 17,0,-1
EndSplineSet
EndChar

StartChar: at
Encoding: 64 64 80
Width: 2560
Flags: W
LayerCount: 2
Fore
SplineSet
1280 896 m 5,0,-1
 1152 1152 l 5,1,-1
 1280 1408 l 5,2,-1
 1408 1152 l 5,3,-1
 1280 896 l 5,4,-1
 1280 896 l 5,0,-1
2048 512 m 1,5,-1
 2048 1792 l 1,6,-1
 512 1792 l 1,7,-1
 512 512 l 1,8,-1
 2048 512 l 1,5,-1
512 256 m 1,9,-1
 256 512 l 1,10,-1
 256 1792 l 1,11,-1
 512 2048 l 1,12,-1
 2048 2048 l 1,13,-1
 2304 1792 l 1,14,-1
 2304 512 l 1,15,-1
 2048 256 l 1,16,-1
 512 256 l 1,9,-1
EndSplineSet
EndChar

StartChar: bracketleft
Encoding: 91 91 81
Width: 2560
Flags: W
LayerCount: 2
Fore
SplineSet
302 351 m 1,0,1
 302 351 302 351 471 434 c 1,2,-1
 1923 434 l 1,3,-1
 2100 356 l 17,4,5
 2100 356 2100 356 1923 270 c 1,6,-1
 471 270 l 1,7,-1
 302 351 l 1,0,1
1152 6 m 1,8,-1
 1024 262 l 1,9,-1
 768 518 l 1,10,-1
 1536 1036 l 5,11,-1
 1536 1292 l 5,12,-1
 1024 1292 l 5,13,-1
 768 1036 l 5,14,-1
 512 1036 l 5,15,-1
 256 1164 l 5,16,-1
 512 1292 l 5,17,-1
 768 1292 l 5,18,-1
 1024 1548 l 5,19,-1
 2048 1548 l 5,20,-1
 2304 1420 l 5,21,-1
 2048 1292 l 5,22,-1
 1792 1292 l 5,23,-1
 1792 1036 l 5,24,-1
 1024 518 l 1,25,-1
 1280 262 l 1,26,-1
 1152 6 l 1,27,-1
 1152 6 l 1,8,-1
EndSplineSet
EndChar

StartChar: backslash
Encoding: 92 92 82
Width: 2560
Flags: W
LayerCount: 2
Fore
SplineSet
526.75 1701 m 5,0,1
 526.75 1701 526.75 1701 653.5 1784 c 5,2,-1
 1742.5 1784 l 5,3,-1
 1875.25 1706 l 21,4,5
 1875.25 1706 1875.25 1706 1742.5 1620 c 5,6,-1
 653.5 1620 l 5,7,-1
 526.75 1701 l 5,0,1
1068.25 1612 m 1029,8,-1
1260.25 1612 m 1029,9,-1
1068.25 1612 m 1029,10,-1
1260.25 1612 m 1029,11,-1
302 351 m 1,12,13
 302 351 302 351 471 434 c 1,14,-1
 1923 434 l 1,15,-1
 2100 356 l 17,16,17
 2100 356 2100 356 1923 270 c 1,18,-1
 471 270 l 1,19,-1
 302 351 l 1,12,13
1024 262 m 1025,20,-1
1280 262 m 1025,21,-1
1205 640 m 1,22,-1
 576 639 l 1,23,-1
 832 767 l 1,24,-1
 1138 768 l 1,25,-1
 1316 888 l 1,26,-1
 1864 889 l 1,27,-1
 1608 761 l 1,28,-1
 1382 759 l 1,29,-1
 1205 640 l 1,22,-1
1152 6 m 1,30,-1
 1024 262 l 1,31,-1
 768 518 l 1,32,-1
 1536 1036 l 1,33,-1
 1536 1292 l 1,34,-1
 1024 1292 l 1,35,-1
 768 1036 l 1,36,-1
 512 1036 l 1,37,-1
 256 1164 l 1,38,-1
 512 1292 l 1,39,-1
 768 1292 l 1,40,-1
 1024 1548 l 1,41,-1
 2048 1548 l 1,42,-1
 2304 1420 l 1,43,-1
 2048 1292 l 1,44,-1
 1792 1292 l 1,45,-1
 1792 1036 l 1,46,-1
 1024 518 l 1,47,-1
 1280 262 l 1,48,-1
 1152 6 l 1,49,-1
 1152 6 l 1,30,-1
EndSplineSet
EndChar

StartChar: bracketright
Encoding: 93 93 83
Width: 2560
Flags: W
LayerCount: 2
Fore
SplineSet
302 351 m 1,0,1
 302 351 302 351 471 434 c 1,2,-1
 1923 434 l 1,3,-1
 2100 356 l 17,4,5
 2100 356 2100 356 1923 270 c 1,6,-1
 471 270 l 1,7,-1
 302 351 l 1,0,1
1024 262 m 1025,8,-1
1280 262 m 1025,9,-1
1205 640 m 1,10,-1
 576 639 l 1,11,-1
 832 767 l 1,12,-1
 1138 768 l 1,13,-1
 1316 888 l 1,14,-1
 1864 889 l 1,15,-1
 1608 761 l 1,16,-1
 1382 759 l 1,17,-1
 1205 640 l 1,10,-1
1152 6 m 1,18,-1
 1024 262 l 1,19,-1
 768 518 l 1,20,-1
 1536 1036 l 1,21,-1
 1536 1292 l 1,22,-1
 1024 1292 l 1,23,-1
 768 1036 l 1,24,-1
 512 1036 l 1,25,-1
 256 1164 l 1,26,-1
 512 1292 l 1,27,-1
 768 1292 l 1,28,-1
 1024 1548 l 1,29,-1
 2048 1548 l 1,30,-1
 2304 1420 l 1,31,-1
 2048 1292 l 1,32,-1
 1792 1292 l 1,33,-1
 1792 1036 l 1,34,-1
 1024 518 l 1,35,-1
 1280 262 l 1,36,-1
 1152 6 l 1,37,-1
 1152 6 l 1,18,-1
EndSplineSet
EndChar

StartChar: asciicircum
Encoding: 94 94 84
Width: 1813
Flags: W
LayerCount: 2
Fore
SplineSet
922 1492 m 1,0,-1
 1690 1108 l 1,1,-1
 922 724 l 1,2,-1
 1178 980 l 1,3,-1
 1179 980 l 1,4,-1
 1306 1108 l 1,5,-1
 922 1492 l 1,6,-1
 922 1492 l 1,0,-1
522 1492 m 1,7,-1
 1290 1108 l 1,8,-1
 522 724 l 1,9,-1
 778 980 l 1,10,-1
 779 980 l 1,11,-1
 906 1108 l 1,12,-1
 522 1492 l 1,13,-1
 522 1492 l 1,7,-1
122 1492 m 1,14,-1
 890 1108 l 1,15,-1
 122 724 l 1,16,-1
 378 980 l 1,17,-1
 379 980 l 1,18,-1
 506 1108 l 1,19,-1
 122 1492 l 1,20,-1
 122 1492 l 1,14,-1
EndSplineSet
EndChar

StartChar: underscore
Encoding: 95 95 85
Width: 739
Flags: W
LayerCount: 2
Fore
SplineSet
739 90 m 5,0,-1
 0 90 l 5,1,-1
 0 201 l 5,2,-1
 739 201 l 5,3,-1
 739 90 l 5,0,-1
EndSplineSet
EndChar

StartChar: grave
Encoding: 96 96 86
Width: 2560
Flags: W
LayerCount: 2
Fore
SplineSet
2052 152.5 m 1,0,1
 2052 152.5 2052 152.5 1969 237 c 1,2,-1
 1969 963 l 1,3,-1
 2047 1051.5 l 17,4,5
 2047 1051.5 2047 1051.5 2133 963 c 1,6,-1
 2133 237 l 1,7,-1
 2052 152.5 l 1,0,1
1152 6 m 1,8,-1
 1024 262 l 1,9,-1
 709 612 l 1,10,-1
 1536 1136 l 1,11,-1
 1536 1292 l 1,12,-1
 1024 1292 l 1,13,-1
 768 1036 l 1,14,-1
 512 1036 l 1,15,-1
 256 1164 l 1,16,-1
 512 1292 l 1,17,-1
 768 1292 l 1,18,-1
 1024 1548 l 1,19,-1
 2048 1548 l 1,20,-1
 2304 1420 l 1,21,-1
 2048 1292 l 1,22,-1
 1792 1292 l 1,23,-1
 1792 1036 l 1,24,-1
 1024 518 l 1,25,-1
 1280 262 l 1,26,-1
 1152 6 l 1,27,-1
 1152 6 l 1,8,-1
EndSplineSet
EndChar

StartChar: a
Encoding: 97 97 87
Width: 2560
Flags: W
LayerCount: 2
Fore
SplineSet
2048 384 m 1,0,-1
 1536 640 l 1,1,-1
 1152 1024 l 1,2,-1
 1536 1792 l 1,3,-1
 1024 1792 l 1,4,-1
 768 1280 l 1,5,-1
 768 768 l 1,6,-1
 640 512 l 1,7,-1
 512 768 l 1,8,-1
 512 1280 l 1,9,-1
 768 1792 l 1,10,-1
 512 1792 l 1,11,-1
 256 1920 l 1,12,-1
 512 2048 l 1,13,-1
 1792 2048 l 1,14,-1
 2048 1920 l 1,15,-1
 1792 1792 l 1,16,-1
 1536 1280 l 1,17,-1
 1534 1280 l 1,18,-1
 1408 1152 l 1,19,-1
 1792 768 l 1,20,-1
 2304 512 l 1,21,-1
 2048 384 l 1,22,-1
 2048 384 l 1,0,-1
EndSplineSet
EndChar

StartChar: b
Encoding: 98 98 88
Width: 2560
Flags: W
LayerCount: 2
Fore
SplineSet
384 256 m 1,0,-1
 256 512 l 1,1,-1
 256 1792 l 1,2,-1
 512 2048 l 1,3,-1
 768 1920 l 1,4,-1
 512 1792 l 1,5,-1
 512 1280 l 1,6,-1
 1024 1024 l 1,7,-1
 1280 1280 l 1,8,-1
 1280 896 l 1,9,-1
 1536 768 l 1,10,-1
 1792 1024 l 1,11,-1
 1792 640 l 1,12,-1
 1920 512 l 1,13,-1
 2048 256 l 1,14,-1
 512 1024 l 1,15,-1
 512 512 l 1,16,-1
 384 256 l 1,17,-1
 384 256 l 1,0,-1
EndSplineSet
EndChar

StartChar: c
Encoding: 99 99 89
Width: 2560
Flags: W
LayerCount: 2
Fore
SplineSet
384 256 m 1,0,-1
 256 512 l 1,1,-1
 256 1792 l 1,2,-1
 512 2048 l 1,3,-1
 768 1920 l 1,4,-1
 512 1792 l 1,5,-1
 512 1280 l 1,6,-1
 1792 640 l 1,7,-1
 1920 512 l 1,8,-1
 2048 256 l 1,9,-1
 1536 512 l 1,10,-1
 1280 256 l 1,11,-1
 1280 640 l 1,12,-1
 1024 768 l 1,13,-1
 768 512 l 1,14,-1
 768 896 l 1,15,-1
 512 1024 l 1,16,-1
 512 512 l 1,17,-1
 384 256 l 1,18,-1
 384 256 l 1,0,-1
EndSplineSet
EndChar

StartChar: d
Encoding: 100 100 90
Width: 2560
Flags: W
LayerCount: 2
Fore
SplineSet
768 256 m 1,0,-1
 512 512 l 1,1,-1
 384 768 l 1,2,-1
 512 1024 l 1,3,-1
 768 1280 l 1,4,-1
 768 1664 l 1,5,-1
 1024 1408 l 1,6,-1
 1280 1536 l 1,7,-1
 1280 1920 l 1,8,-1
 1536 1664 l 1,9,-1
 1792 1792 l 1,10,-1
 1664 1536 l 1,11,-1
 1536 1408 l 1,12,-1
 768 1024 l 1,13,-1
 640 768 l 1,14,-1
 768 512 l 1,15,-1
 2048 512 l 1,16,-1
 2048 1792 l 1,17,-1
 2176 2048 l 1,18,-1
 2304 1792 l 1,19,-1
 2304 512 l 1,20,-1
 2048 256 l 1,21,-1
 768 256 l 1,0,-1
EndSplineSet
EndChar

StartChar: e
Encoding: 101 101 91
Width: 2560
Flags: W
LayerCount: 2
Fore
SplineSet
768 256 m 1,0,-1
 512 512 l 1,1,-1
 384 768 l 1,2,-1
 512 1024 l 1,3,-1
 768 1280 l 1,4,-1
 1792 1792 l 1,5,-1
 1664 1536 l 1,6,-1
 1536 1408 l 1,7,-1
 1536 1024 l 1,8,-1
 1280 1280 l 1,9,-1
 1024 1152 l 1,10,-1
 1024 768 l 1,11,-1
 768 1024 l 1,12,-1
 640 768 l 1,13,-1
 768 512 l 1,14,-1
 2048 512 l 1,15,-1
 2048 1792 l 1,16,-1
 2176 2048 l 1,17,-1
 2304 1792 l 1,18,-1
 2304 512 l 1,19,-1
 2048 256 l 1,20,-1
 768 256 l 1,0,-1
EndSplineSet
EndChar

StartChar: f
Encoding: 102 102 92
Width: 2560
Flags: W
LayerCount: 2
Fore
SplineSet
384 256 m 1,0,-1
 256 512 l 1,1,-1
 256 1792 l 1,2,-1
 512 2048 l 1,3,-1
 2048 2048 l 1,4,-1
 2304 1792 l 1,5,-1
 2176 1536 l 1,6,-1
 2048 1792 l 1,7,-1
 512 1792 l 1,8,-1
 512 1280 l 1,9,-1
 1792 640 l 1,10,-1
 1920 512 l 1,11,-1
 2048 256 l 1,12,-1
 1536 512 l 1,13,-1
 1280 256 l 1,14,-1
 1280 640 l 1,15,-1
 1024 768 l 1,16,-1
 768 512 l 1,17,-1
 768 896 l 1,18,-1
 512 1024 l 1,19,-1
 512 512 l 1,20,-1
 384 256 l 1,21,-1
 384 256 l 1,0,-1
EndSplineSet
EndChar

StartChar: g
Encoding: 103 103 93
Width: 2560
Flags: W
LayerCount: 2
Fore
SplineSet
1535 1439 m 1,0,-1
 618 773 l 5,1,-1
 768 512 l 1,2,-1
 1536 512 l 1,3,-1
 2048 1024 l 1,4,-1
 2048 1792 l 1,5,-1
 2176 2048 l 1,6,-1
 2304 1792 l 1,7,-1
 2304 1024 l 1,8,-1
 1536 256 l 1,9,-1
 768 256 l 1,10,-1
 512 512 l 1,11,-1
 396 747 l 1,12,-1
 447 921.528901734 l 1,13,14
 447 921.528901734 447 921.528901734 1382 1589 c 9,15,-1
 1589 1619 l 1,16,-1
 1535 1439 l 1,0,-1
EndSplineSet
EndChar

StartChar: h
Encoding: 104 104 94
Width: 2560
Flags: W
LayerCount: 2
Fore
SplineSet
2048 384 m 1,0,-1
 1280 768 l 1,1,-1
 1280 769 l 1,2,-1
 1152 896 l 1,3,-1
 1024 768 l 1,4,-1
 512 512 l 1,5,-1
 256 512 l 1,6,-1
 512 768 l 1,7,-1
 1024 1024 l 1,8,-1
 1152 1280 l 1,9,-1
 512 1280 l 1,10,-1
 256 1408 l 1,11,-1
 512 1536 l 1,12,-1
 1280 1536 l 1,13,-1
 1024 2048 l 1,14,-1
 1280 1920 l 1,15,-1
 1536 1664 l 1,16,-1
 2048 1920 l 1,17,-1
 2304 1792 l 1,18,-1
 1536 1408 l 1,19,-1
 1408 1280 l 1,20,-1
 1280 1024 l 1,21,-1
 2304 512 l 1,22,-1
 2048 384 l 1,23,-1
 2048 384 l 1,0,-1
EndSplineSet
EndChar

StartChar: i
Encoding: 105 105 95
Width: 2560
Flags: W
LayerCount: 2
Fore
SplineSet
2048 384 m 1,0,-1
 1280 768 l 1,1,-1
 1280 769 l 1,2,-1
 1152 896 l 1,3,-1
 1024 768 l 1,4,-1
 512 512 l 1,5,-1
 256 512 l 1,6,-1
 512 768 l 1,7,-1
 1024 1024 l 1,8,-1
 1280 1280 l 1,9,-1
 1408 1536 l 1,10,-1
 1408 1664 l 1,11,-1
 1280 1792 l 1,12,-1
 512 1792 l 1,13,-1
 256 1920 l 1,14,-1
 512 2048 l 1,15,-1
 2304 2048 l 1,16,-1
 1792 1792 l 1,17,-1
 1536 1280 l 1,18,-1
 1280 1024 l 1,19,-1
 2304 512 l 1,20,-1
 2048 384 l 1,21,-1
 2048 384 l 1,0,-1
EndSplineSet
EndChar

StartChar: j
Encoding: 106 106 96
Width: 2560
Flags: W
LayerCount: 2
Fore
SplineSet
768 256 m 1,0,-1
 512 512 l 1,1,-1
 256 1024 l 1,2,-1
 512 896 l 1,3,-1
 640 768 l 1,4,-1
 768 512 l 1,5,-1
 1536 512 l 1,6,-1
 2048 1024 l 1,7,-1
 2048 1792 l 1,8,-1
 2176 2048 l 1,9,-1
 2304 1792 l 1,10,-1
 2304 1024 l 1,11,-1
 1536 256 l 1,12,-1
 768 256 l 1,0,-1
EndSplineSet
EndChar

StartChar: k
Encoding: 107 107 97
Width: 2560
Flags: W
LayerCount: 2
Fore
SplineSet
512 256 m 1,0,-1
 256 512 l 1,1,-1
 512 768 l 1,2,-1
 768 896 l 1,3,-1
 768 1280 l 1,4,-1
 1024 1024 l 1,5,-1
 1280 1152 l 1,6,-1
 1280 1536 l 1,7,-1
 1536 1280 l 1,8,-1
 1920 1472 l 1,9,-1
 1280 1792 l 1,10,-1
 256 1792 l 1,11,-1
 512 2048 l 1,12,-1
 1280 2048 l 1,13,-1
 2048 1664 l 1,14,-1
 2176 1536 l 1,15,-1
 2176 1408 l 1,16,-1
 2048 1280 l 1,17,-1
 512 512 l 1,18,-1
 2048 512 l 1,19,-1
 2304 384 l 1,20,-1
 2048 256 l 1,21,-1
 512 256 l 1,0,-1
EndSplineSet
EndChar

StartChar: l
Encoding: 108 108 98
Width: 2560
Flags: W
LayerCount: 2
Fore
SplineSet
512 256 m 1,0,-1
 256 512 l 1,1,-1
 512 768 l 1,2,-1
 1920 1472 l 1,3,-1
 1280 1792 l 1,4,-1
 256 1792 l 1,5,-1
 512 2048 l 1,6,-1
 1280 2048 l 1,7,-1
 2048 1664 l 1,8,-1
 2176 1536 l 1,9,-1
 2176 1408 l 1,10,-1
 2048 1280 l 1,11,-1
 2048 896 l 1,12,-1
 1792 1152 l 1,13,-1
 1536 1024 l 1,14,-1
 1536 640 l 1,15,-1
 1280 896 l 1,16,-1
 512 512 l 1,17,-1
 2048 512 l 1,18,-1
 2304 384 l 1,19,-1
 2048 256 l 1,20,-1
 512 256 l 1,0,-1
EndSplineSet
EndChar

StartChar: m
Encoding: 109 109 99
Width: 2560
Flags: W
LayerCount: 2
Fore
SplineSet
1408 640 m 1,0,-1
 1792 1024 l 1,1,-1
 1536 1280 l 1,2,-1
 1536 1281 l 1,3,-1
 1408 1408 l 1,4,-1
 1024 1024 l 1,5,-1
 1280 768 l 1,6,-1
 1280 766 l 1,7,-1
 1408 640 l 1,8,-1
 1408 640 l 1,0,-1
1408 256 m 1,9,-1
 1280 512 l 1,10,-1
 768 1024 l 1,11,-1
 1280 1536 l 1,12,-1
 1280 1792 l 1,13,-1
 1024 1792 l 1,14,-1
 768 1536 l 1,15,-1
 512 1536 l 1,16,-1
 256 1664 l 1,17,-1
 512 1792 l 1,18,-1
 768 1792 l 1,19,-1
 1024 2048 l 1,20,-1
 2048 2048 l 1,21,-1
 2304 1920 l 1,22,-1
 2048 1792 l 1,23,-1
 1536 1792 l 1,24,-1
 1536 1536 l 1,25,-1
 2048 1024 l 1,26,-1
 1536 512 l 1,27,-1
 1408 256 l 1,28,-1
 1408 256 l 1,9,-1
EndSplineSet
EndChar

StartChar: n
Encoding: 110 110 100
Width: 2560
Flags: W
LayerCount: 2
Fore
SplineSet
1152 256 m 1,0,-1
 1024 512 l 1,1,-1
 768 768 l 1,2,-1
 1536 1536 l 1,3,-1
 1536 1792 l 1,4,-1
 1024 1792 l 1,5,-1
 768 1536 l 1,6,-1
 512 1536 l 1,7,-1
 256 1664 l 1,8,-1
 512 1792 l 1,9,-1
 768 1792 l 1,10,-1
 1024 2048 l 1,11,-1
 2048 2048 l 1,12,-1
 2304 1920 l 1,13,-1
 2048 1792 l 1,14,-1
 1792 1792 l 1,15,-1
 1792 1536 l 1,16,-1
 1024 768 l 1,17,-1
 1280 512 l 1,18,-1
 1152 256 l 1,19,-1
 1152 256 l 1,0,-1
EndSplineSet
EndChar

StartChar: o
Encoding: 111 111 101
Width: 2560
Flags: W
LayerCount: 2
Fore
SplineSet
2048 384 m 1,0,-1
 1536 640 l 1,1,-1
 1408 768 l 1,2,-1
 1280 1024 l 1,3,-1
 1280 1792 l 1,4,-1
 512 1792 l 1,5,-1
 512 768 l 1,6,-1
 1024 768 l 1,7,-1
 1280 640 l 1,8,-1
 1024 512 l 1,9,-1
 512 512 l 1,10,-1
 256 768 l 1,11,-1
 256 1792 l 1,12,-1
 512 2048 l 1,13,-1
 1280 2048 l 1,14,-1
 1536 1792 l 1,15,-1
 1536 1024 l 1,16,-1
 1792 768 l 1,17,-1
 2304 512 l 1,18,-1
 2048 384 l 1,19,-1
 2048 384 l 1,0,-1
EndSplineSet
EndChar

StartChar: p
Encoding: 112 112 102
Width: 2560
Flags: W
LayerCount: 2
Fore
SplineSet
384 256 m 1,0,-1
 256 512 l 1,1,-1
 256 1792 l 1,2,-1
 512 2048 l 1,3,-1
 2048 2048 l 1,4,-1
 2304 1792 l 1,5,-1
 2176 1536 l 1,6,-1
 2048 1792 l 1,7,-1
 512 1792 l 1,8,-1
 512 1280 l 1,9,-1
 1024 1024 l 1,10,-1
 1280 1280 l 1,11,-1
 1280 896 l 1,12,-1
 1536 768 l 1,13,-1
 1792 1024 l 1,14,-1
 1792 640 l 1,15,-1
 1920 512 l 1,16,-1
 2048 256 l 1,17,-1
 512 1024 l 1,18,-1
 512 512 l 1,19,-1
 384 256 l 1,20,-1
 384 256 l 1,0,-1
EndSplineSet
EndChar

StartChar: q
Encoding: 113 113 103
Width: 2560
Flags: W
LayerCount: 2
Fore
SplineSet
512 256 m 1,0,-1
 256 384 l 1,1,-1
 512 512 l 1,2,-1
 2048 512 l 1,3,-1
 512 1280 l 1,4,-1
 384 1408 l 1,5,-1
 384 1536 l 1,6,-1
 512 1664 l 1,7,-1
 1280 2048 l 1,8,-1
 2048 2048 l 1,9,-1
 2304 1792 l 1,10,-1
 1280 1792 l 1,11,-1
 640 1472 l 1,12,-1
 1024 1280 l 1,13,-1
 1280 1536 l 1,14,-1
 1280 1152 l 1,15,-1
 1536 1024 l 1,16,-1
 1792 1280 l 1,17,-1
 1792 896 l 1,18,-1
 2048 768 l 1,19,-1
 2304 512 l 1,20,-1
 2048 256 l 1,21,-1
 512 256 l 1,0,-1
EndSplineSet
EndChar

StartChar: r
Encoding: 114 114 104
Width: 2560
Flags: W
LayerCount: 2
Fore
SplineSet
512 256 m 1,0,-1
 256 384 l 1,1,-1
 512 512 l 1,2,-1
 2048 512 l 1,3,-1
 1280 896 l 1,4,-1
 1024 640 l 1,5,-1
 1024 1024 l 1,6,-1
 768 1152 l 1,7,-1
 512 896 l 1,8,-1
 512 1280 l 1,9,-1
 384 1408 l 1,10,-1
 384 1536 l 1,11,-1
 512 1664 l 1,12,-1
 1280 2048 l 1,13,-1
 2048 2048 l 1,14,-1
 2304 1792 l 1,15,-1
 1280 1792 l 1,16,-1
 640 1472 l 1,17,-1
 2048 768 l 1,18,-1
 2304 512 l 1,19,-1
 2048 256 l 1,20,-1
 512 256 l 1,0,-1
EndSplineSet
EndChar

StartChar: s
Encoding: 115 115 105
Width: 2560
Flags: W
LayerCount: 2
Fore
SplineSet
512 256 m 1,0,-1
 256 384 l 1,1,-1
 512 512 l 1,2,-1
 1152 512 l 1,3,-1
 1152 1024 l 1,4,-1
 256 1024 l 1,5,-1
 512 1152 l 1,6,-1
 1024 1152 l 1,7,-1
 1152 1280 l 1,8,-1
 1152 1792 l 1,9,-1
 1280 2048 l 1,10,-1
 1408 1792 l 1,11,-1
 1408 1280 l 1,12,-1
 2304 1280 l 1,13,-1
 2048 1152 l 1,14,-1
 1536 1152 l 1,15,-1
 1408 1024 l 1,16,-1
 1408 512 l 1,17,-1
 2048 512 l 1,18,-1
 2304 384 l 1,19,-1
 2048 256 l 1,20,-1
 512 256 l 1,0,-1
EndSplineSet
EndChar

StartChar: t
Encoding: 116 116 106
Width: 2560
Flags: W
LayerCount: 2
Fore
SplineSet
768 256 m 1,0,-1
 512 512 l 1,1,-1
 384 768 l 1,2,-1
 512 1024 l 1,3,-1
 768 1280 l 1,4,-1
 1792 1792 l 1,5,-1
 1664 1536 l 1,6,-1
 1536 1408 l 1,7,-1
 1536 1024 l 1,8,-1
 1280 1280 l 1,9,-1
 1024 1152 l 1,10,-1
 1024 768 l 1,11,-1
 768 1024 l 1,12,-1
 640 768 l 1,13,-1
 768 512 l 1,14,-1
 2048 512 l 1,15,-1
 2304 384 l 1,16,-1
 2048 256 l 1,17,-1
 768 256 l 1,0,-1
EndSplineSet
EndChar

StartChar: u
Encoding: 117 117 107
Width: 2560
Flags: W
LayerCount: 2
Fore
SplineSet
768 256 m 1,0,-1
 512 512 l 1,1,-1
 384 768 l 1,2,-1
 512 1024 l 1,3,-1
 768 1280 l 1,4,-1
 1024 1408 l 1,5,-1
 1024 1792 l 1,6,-1
 1152 2048 l 1,7,-1
 1280 1792 l 1,8,-1
 1280 1536 l 1,9,-1
 1792 1792 l 1,10,-1
 1664 1536 l 1,11,-1
 1536 1408 l 1,12,-1
 768 1024 l 1,13,-1
 640 768 l 1,14,-1
 768 512 l 1,15,-1
 2048 512 l 1,16,-1
 2304 384 l 1,17,-1
 2048 256 l 1,18,-1
 768 256 l 1,0,-1
EndSplineSet
EndChar

StartChar: v
Encoding: 118 118 108
Width: 2560
Flags: W
LayerCount: 2
Fore
SplineSet
2176 256 m 1,0,-1
 2048 512 l 1,1,-1
 2048 1792 l 1,2,-1
 768 1792 l 1,3,-1
 640 1536 l 1,4,-1
 768 1280 l 1,5,-1
 1536 896 l 1,6,-1
 1664 768 l 1,7,-1
 1792 512 l 1,8,-1
 1536 640 l 1,9,-1
 1280 384 l 1,10,-1
 1280 768 l 1,11,-1
 1024 896 l 1,12,-1
 768 640 l 1,13,-1
 768 1024 l 1,14,-1
 512 1280 l 1,15,-1
 384 1536 l 1,16,-1
 512 1792 l 1,17,-1
 768 2048 l 1,18,-1
 2048 2048 l 1,19,-1
 2304 1792 l 1,20,-1
 2304 512 l 1,21,-1
 2176 256 l 1,22,-1
 2176 256 l 1,0,-1
EndSplineSet
EndChar

StartChar: w
Encoding: 119 119 109
Width: 2560
Flags: W
LayerCount: 2
Fore
SplineSet
1280 1280 m 1,0,-1
 1408 1536 l 1,1,-1
 1536 1664 l 1,2,-1
 1536 1792 l 1,3,-1
 1024 1792 l 1,4,-1
 1024 1280 l 1,5,-1
 1280 1280 l 1,0,-1
896 256 m 1,6,-1
 768 512 l 1,7,-1
 768 1792 l 1,8,-1
 512 1792 l 1,9,-1
 256 1920 l 1,10,-1
 512 2048 l 1,11,-1
 2048 2048 l 1,12,-1
 2304 1920 l 1,13,-1
 2048 1792 l 1,14,-1
 1792 1792 l 1,15,-1
 1792 1536 l 1,16,-1
 1536 1280 l 1,17,-1
 1534 1280 l 1,18,-1
 1408 1152 l 1,19,-1
 1792 768 l 1,20,-1
 2304 512 l 1,21,-1
 2048 384 l 1,22,-1
 1536 640 l 1,23,-1
 1408 768 l 1,24,-1
 1280 1024 l 1,25,-1
 1024 1024 l 1,26,-1
 1024 512 l 1,27,-1
 896 256 l 1,28,-1
 896 256 l 1,6,-1
EndSplineSet
EndChar

StartChar: x
Encoding: 120 120 110
Width: 2560
Flags: W
LayerCount: 2
Fore
SplineSet
768 256 m 1,0,-1
 512 512 l 1,1,-1
 384 768 l 1,2,-1
 512 1024 l 1,3,-1
 768 1280 l 1,4,-1
 1536 1664 l 1,5,-1
 1408 1408 l 1,6,-1
 1280 1280 l 1,7,-1
 768 1024 l 1,8,-1
 640 768 l 1,9,-1
 768 512 l 1,10,-1
 2048 512 l 1,11,-1
 2048 1792 l 1,12,-1
 512 1792 l 1,13,-1
 256 1920 l 1,14,-1
 512 2048 l 1,15,-1
 2048 2048 l 1,16,-1
 2304 1792 l 1,17,-1
 2304 512 l 1,18,-1
 2048 256 l 1,19,-1
 768 256 l 1,0,-1
EndSplineSet
EndChar

StartChar: y
Encoding: 121 121 111
Width: 2560
Flags: W
LayerCount: 2
Fore
SplineSet
512 256 m 1,0,-1
 256 384 l 1,1,-1
 512 512 l 1,2,-1
 2048 512 l 1,3,-1
 2048 1024 l 1,4,-1
 384 1024 l 1,5,-1
 640 1152 l 1,6,-1
 1920 1152 l 1,7,-1
 2048 1280 l 1,8,-1
 2048 1792 l 1,9,-1
 512 1792 l 1,10,-1
 256 1920 l 1,11,-1
 512 2048 l 1,12,-1
 2048 2048 l 1,13,-1
 2304 1792 l 1,14,-1
 2304 512 l 1,15,-1
 2048 256 l 1,16,-1
 512 256 l 1,0,-1
EndSplineSet
EndChar

StartChar: z
Encoding: 122 122 112
Width: 2560
Flags: W
LayerCount: 2
Fore
SplineSet
2048 512 m 1,0,-1
 2048 1024 l 1,1,-1
 1024 1024 l 1,2,-1
 1024 1025 l 1,3,-1
 896 1152 l 1,4,-1
 768 1024 l 1,5,-1
 640 768 l 1,6,-1
 768 512 l 1,7,-1
 2048 512 l 1,0,-1
768 256 m 1,8,-1
 512 512 l 1,9,-1
 384 768 l 1,10,-1
 512 1024 l 1,11,-1
 896 1408 l 1,12,-1
 1152 1152 l 1,13,-1
 1920 1152 l 1,14,-1
 2048 1280 l 1,15,-1
 2048 1792 l 1,16,-1
 512 1792 l 1,17,-1
 256 1920 l 1,18,-1
 512 2048 l 1,19,-1
 2048 2048 l 1,20,-1
 2304 1792 l 1,21,-1
 2304 512 l 1,22,-1
 2048 256 l 1,23,-1
 768 256 l 1,8,-1
EndSplineSet
EndChar

StartChar: braceleft
Encoding: 123 123 113
Width: 2560
Flags: W
LayerCount: 2
Fore
SplineSet
827 1729 m 1,0,1
 827 1729 827 1729 911.5 1812 c 1,2,-1
 1637.5 1812 l 1,3,-1
 1726 1734 l 17,4,5
 1726 1734 1726 1734 1637.5 1648 c 1,6,-1
 911.5 1648 l 1,7,-1
 827 1729 l 1,0,1
1152 6 m 1,8,-1
 1024 262 l 1,9,-1
 709 612 l 1,10,-1
 1536 1136 l 1,11,-1
 1536 1292 l 1,12,-1
 1024 1292 l 1,13,-1
 768 1036 l 1,14,-1
 512 1036 l 1,15,-1
 256 1164 l 1,16,-1
 512 1292 l 1,17,-1
 768 1292 l 1,18,-1
 1024 1548 l 1,19,-1
 2048 1548 l 1,20,-1
 2304 1420 l 1,21,-1
 2048 1292 l 1,22,-1
 1792 1292 l 1,23,-1
 1792 1036 l 1,24,-1
 1024 518 l 1,25,-1
 1280 262 l 1,26,-1
 1152 6 l 1,27,-1
 1152 6 l 1,8,-1
EndSplineSet
EndChar

StartChar: bar
Encoding: 124 124 114
Width: 2560
Flags: W
LayerCount: 2
Fore
SplineSet
1216 131 m 1,0,-1
 1146 257 l 1,1,-1
 1024 518 l 5,2,-1
 1146 449 l 1,3,-1
 1210 385 l 1,4,-1
 1274 257 l 1,5,-1
 1658 257 l 1,6,-1
 1914 513 l 1,7,-1
 1914 897 l 1,8,-1
 1978 1025 l 1,9,-1
 2042 897 l 1,10,-1
 2042 513 l 1,11,-1
 1658 129 l 1,12,-1
 1216 131 l 1,0,-1
1152 6 m 1,13,-1
 1024 262 l 1,14,-1
 709 612 l 1,15,-1
 1536 1136 l 1,16,-1
 1536 1292 l 1,17,-1
 1024 1292 l 1,18,-1
 768 1036 l 1,19,-1
 512 1036 l 1,20,-1
 256 1164 l 1,21,-1
 512 1292 l 1,22,-1
 768 1292 l 1,23,-1
 1024 1548 l 1,24,-1
 2048 1548 l 1,25,-1
 2304 1420 l 1,26,-1
 2048 1292 l 1,27,-1
 1792 1292 l 1,28,-1
 1792 1036 l 1,29,-1
 1024 518 l 1,30,-1
 1280 262 l 1,31,-1
 1152 6 l 1,32,-1
 1152 6 l 1,13,-1
EndSplineSet
EndChar

StartChar: braceright
Encoding: 125 125 115
Width: 2560
Flags: W
LayerCount: 2
Fore
SplineSet
1276 1725.5 m 1,0,1
 1276 1725.5 1276 1725.5 1193 1810 c 1,2,-1
 1194.5 1891 l 5,3,-1
 1272.5 1979.5 l 21,4,5
 1272.5 1979.5 1272.5 1979.5 1358.5 1891 c 5,6,-1
 1357 1810 l 1,7,-1
 1276 1725.5 l 1,0,1
827 1729 m 1,8,9
 827 1729 827 1729 911.5 1812 c 1,10,-1
 1637.5 1812 l 1,11,-1
 1726 1734 l 17,12,13
 1726 1734 1726 1734 1637.5 1648 c 1,14,-1
 911.5 1648 l 1,15,-1
 827 1729 l 1,8,9
1152 6 m 1,16,-1
 1024 262 l 1,17,-1
 709 612 l 1,18,-1
 1536 1136 l 1,19,-1
 1536 1292 l 1,20,-1
 1024 1292 l 1,21,-1
 768 1036 l 1,22,-1
 512 1036 l 1,23,-1
 256 1164 l 1,24,-1
 512 1292 l 1,25,-1
 768 1292 l 1,26,-1
 1024 1548 l 1,27,-1
 2048 1548 l 1,28,-1
 2304 1420 l 1,29,-1
 2048 1292 l 1,30,-1
 1792 1292 l 1,31,-1
 1792 1036 l 1,32,-1
 1024 518 l 1,33,-1
 1280 262 l 1,34,-1
 1152 6 l 1,16,-1
EndSplineSet
EndChar

StartChar: asciitilde
Encoding: 126 126 116
Width: 1030
Flags: W
LayerCount: 2
Fore
SplineSet
125 1024 m 5,0,-1
 509 1792 l 5,1,-1
 893 1024 l 5,2,-1
 637 1280 l 5,3,-1
 637 1281 l 5,4,-1
 509 1408 l 5,5,-1
 125 1024 l 5,6,-1
 125 1024 l 5,0,-1
EndSplineSet
EndChar

StartChar: H
Encoding: 72 72 117
Width: 2560
Flags: W
LayerCount: 2
Fore
SplineSet
2304 256 m 1,0,-1
 1536 640 l 1,1,-1
 1280 384 l 1,2,-1
 1280 768 l 1,3,-1
 1024 896 l 1,4,-1
 768 640 l 1,5,-1
 768 1024 l 1,6,-1
 512 1280 l 1,7,-1
 384 1536 l 1,8,-1
 512 1792 l 1,9,-1
 768 2048 l 1,10,-1
 1024 2048 l 1,11,-1
 1536 1792 l 1,12,-1
 768 1792 l 1,13,-1
 640 1536 l 1,14,-1
 768 1280 l 1,15,-1
 2048 640 l 1,16,-1
 2176 512 l 1,17,-1
 2304 256 l 1,18,-1
 2304 256 l 1,0,-1
EndSplineSet
EndChar

StartChar: U
Encoding: 85 85 118
Width: 2560
Flags: W
LayerCount: 2
Fore
SplineSet
768 256 m 1,0,-1
 512 512 l 1,1,-1
 384 768 l 1,2,-1
 512 1024 l 1,3,-1
 768 1280 l 1,4,-1
 768 1664 l 1,5,-1
 1024 1408 l 1,6,-1
 1280 1536 l 1,7,-1
 1280 1920 l 1,8,-1
 1536 1664 l 1,9,-1
 1792 1792 l 1,10,-1
 1664 1536 l 1,11,-1
 1536 1408 l 1,12,-1
 768 1024 l 1,13,-1
 640 768 l 1,14,-1
 768 512 l 1,15,-1
 2048 512 l 1,16,-1
 2304 384 l 1,17,-1
 2048 256 l 1,18,-1
 768 256 l 1,0,-1
EndSplineSet
EndChar

StartChar: W
Encoding: 87 87 119
Width: 2560
Flags: W
LayerCount: 2
Fore
SplineSet
2176 256 m 1,0,-1
 2048 512 l 1,1,-1
 2048 1792 l 1,2,-1
 768 1792 l 1,3,-1
 640 1536 l 1,4,-1
 768 1280 l 1,5,-1
 1024 1536 l 1,6,-1
 1024 1152 l 1,7,-1
 1280 1024 l 1,8,-1
 1536 1280 l 1,9,-1
 1536 896 l 1,10,-1
 1664 768 l 1,11,-1
 1792 512 l 1,12,-1
 768 1024 l 1,13,-1
 512 1280 l 1,14,-1
 384 1536 l 1,15,-1
 512 1792 l 1,16,-1
 768 2048 l 1,17,-1
 2048 2048 l 1,18,-1
 2304 1792 l 1,19,-1
 2304 512 l 1,20,-1
 2176 256 l 1,21,-1
 2176 256 l 1,0,-1
EndSplineSet
EndChar

StartChar: X
Encoding: 88 88 120
Width: 2560
Flags: W
LayerCount: 2
Fore
SplineSet
512 256 m 1,0,-1
 256 384 l 1,1,-1
 512 512 l 1,2,-1
 1152 512 l 1,3,-1
 1152 1024 l 1,4,-1
 256 1024 l 1,5,-1
 512 1152 l 1,6,-1
 1024 1152 l 1,7,-1
 1152 1280 l 1,8,-1
 1152 1792 l 1,9,-1
 512 1792 l 1,10,-1
 256 1920 l 1,11,-1
 512 2048 l 1,12,-1
 2048 2048 l 1,13,-1
 2304 1920 l 1,14,-1
 2048 1792 l 1,15,-1
 1408 1792 l 1,16,-1
 1408 1280 l 1,17,-1
 2304 1280 l 1,18,-1
 2048 1152 l 1,19,-1
 1536 1152 l 1,20,-1
 1408 1024 l 1,21,-1
 1408 512 l 1,22,-1
 2048 512 l 1,23,-1
 2304 384 l 1,24,-1
 2048 256 l 1,25,-1
 512 256 l 1,0,-1
EndSplineSet
EndChar
